<svg xmlns="http://www.w3.org/2000/svg" xmlns:xlink="http://www.w3.org/1999/xlink" width="500" zoomAndPan="magnify" viewBox="0 0 375 374.999991" height="500" preserveAspectRatio="xMidYMid meet" version="1.0"><defs><g/><clipPath id="142dbf94b9"><path d="M 75.140625 56.253906 L 112.628906 56.253906 L 112.628906 93.746094 L 75.140625 93.746094 Z M 75.140625 56.253906 " clip-rule="nonzero"/></clipPath><clipPath id="889739922c"><path d="M 112.640625 93.753906 L 150.128906 93.753906 L 150.128906 131.246094 L 112.640625 131.246094 Z M 112.640625 93.753906 " clip-rule="nonzero"/></clipPath><clipPath id="5623d891d8"><path d="M 75.140625 131.253906 L 112.628906 131.253906 L 112.628906 168.746094 L 75.140625 168.746094 Z M 75.140625 131.253906 " clip-rule="nonzero"/></clipPath><clipPath id="70f9037bfd"><path d="M 112.640625 168.753906 L 150.128906 168.753906 L 150.128906 206.246094 L 112.640625 206.246094 Z M 112.640625 168.753906 " clip-rule="nonzero"/></clipPath><clipPath id="8e997da7a2"><path d="M 37.640625 93.753906 L 75.128906 93.753906 L 75.128906 131.246094 L 37.640625 131.246094 Z M 37.640625 93.753906 " clip-rule="nonzero"/></clipPath><clipPath id="26f9233e4e"><path d="M 37.640625 168.753906 L 75.128906 168.753906 L 75.128906 206.246094 L 37.640625 206.246094 Z M 37.640625 168.753906 " clip-rule="nonzero"/></clipPath><clipPath id="1f96b7e3e6"><path d="M 150.140625 56.253906 L 187.628906 56.253906 L 187.628906 93.746094 L 150.140625 93.746094 Z M 150.140625 56.253906 " clip-rule="nonzero"/></clipPath><clipPath id="5aaa8d1850"><path d="M 150.140625 131.253906 L 187.628906 131.253906 L 187.628906 168.746094 L 150.140625 168.746094 Z M 150.140625 131.253906 " clip-rule="nonzero"/></clipPath><clipPath id="c58ac6cffe"><path d="M 75.140625 206.253906 L 112.628906 206.253906 L 112.628906 243.746094 L 75.140625 243.746094 Z M 75.140625 206.253906 " clip-rule="nonzero"/></clipPath><clipPath id="67686b0e1e"><path d="M 112.640625 243.753906 L 150.128906 243.753906 L 150.128906 281.246094 L 112.640625 281.246094 Z M 112.640625 243.753906 " clip-rule="nonzero"/></clipPath><clipPath id="a59958cc1b"><path d="M 75.140625 281.253906 L 112.628906 281.253906 L 112.628906 318.746094 L 75.140625 318.746094 Z M 75.140625 281.253906 " clip-rule="nonzero"/></clipPath><clipPath id="ed78ca190c"><path d="M 37.640625 243.753906 L 75.128906 243.753906 L 75.128906 281.246094 L 37.640625 281.246094 Z M 37.640625 243.753906 " clip-rule="nonzero"/></clipPath><clipPath id="45aa80c668"><path d="M 150.140625 206.253906 L 187.628906 206.253906 L 187.628906 243.746094 L 150.140625 243.746094 Z M 150.140625 206.253906 " clip-rule="nonzero"/></clipPath><clipPath id="47a7a74bd2"><path d="M 150.140625 281.253906 L 187.628906 281.253906 L 187.628906 318.746094 L 150.140625 318.746094 Z M 150.140625 281.253906 " clip-rule="nonzero"/></clipPath><clipPath id="e65bdd033a"><path d="M 187.5 -18.75 C 73.589844 -18.75 -18.75 73.589844 -18.75 187.5 C -18.75 301.410156 73.589844 393.75 187.5 393.75 C 301.410156 393.75 393.75 301.410156 393.75 187.5 C 393.75 73.589844 301.410156 -18.75 187.5 -18.75 Z M 187.5 -18.75 " clip-rule="nonzero"/></clipPath><clipPath id="3e345bc5b2"><path d="M 18.75 18.75 L 356.25 18.75 L 356.25 356.25 L 18.75 356.25 Z M 18.75 18.75 " clip-rule="nonzero"/></clipPath><clipPath id="cd5e75b32e"><path d="M 187.5 18.75 C 94.300781 18.75 18.75 94.300781 18.75 187.5 C 18.75 280.699219 94.300781 356.25 187.5 356.25 C 280.699219 356.25 356.25 280.699219 356.25 187.5 C 356.25 94.300781 280.699219 18.75 187.5 18.75 Z M 187.5 18.75 " clip-rule="nonzero"/></clipPath><clipPath id="4e2a6c285b"><path d="M 52.5 52.5 L 322.5 52.5 L 322.5 322.5 L 52.5 322.5 Z M 52.5 52.5 " clip-rule="nonzero"/></clipPath><clipPath id="e7733884b8"><path d="M 187.5 52.5 C 112.941406 52.5 52.5 112.941406 52.5 187.5 C 52.5 262.058594 112.941406 322.5 187.5 322.5 C 262.058594 322.5 322.5 262.058594 322.5 187.5 C 322.5 112.941406 262.058594 52.5 187.5 52.5 Z M 187.5 52.5 " clip-rule="nonzero"/></clipPath><clipPath id="eb090c127b"><path d="M 25.375 175.09375 L 51.445312 175.09375 L 51.445312 199.90625 L 25.375 199.90625 Z M 25.375 175.09375 " clip-rule="nonzero"/></clipPath><clipPath id="61cfa74e16"><path d="M 38.390625 175.09375 L 41.464844 184.570312 L 51.40625 184.570312 L 43.363281 190.429688 L 46.433594 199.90625 L 38.390625 194.046875 L 30.347656 199.90625 L 33.417969 190.429688 L 25.375 184.570312 L 35.320312 184.570312 Z M 38.390625 175.09375 " clip-rule="nonzero"/></clipPath><clipPath id="26f4b0984c"><path d="M 40.234375 107.21875 L 66.304688 107.21875 L 66.304688 132.027344 L 40.234375 132.027344 Z M 40.234375 107.21875 " clip-rule="nonzero"/></clipPath><clipPath id="be29bcf401"><path d="M 53.25 107.21875 L 56.324219 116.695312 L 66.265625 116.695312 L 58.222656 122.550781 L 61.292969 132.027344 L 53.25 126.171875 L 45.207031 132.027344 L 48.277344 122.550781 L 40.234375 116.695312 L 50.175781 116.695312 Z M 53.25 107.21875 " clip-rule="nonzero"/></clipPath><clipPath id="a801511a06"><path d="M 40.234375 242.65625 L 66.304688 242.65625 L 66.304688 267.464844 L 40.234375 267.464844 Z M 40.234375 242.65625 " clip-rule="nonzero"/></clipPath><clipPath id="64ff45294a"><path d="M 53.25 242.65625 L 56.324219 252.132812 L 66.265625 252.132812 L 58.222656 257.988281 L 61.292969 267.464844 L 53.25 261.609375 L 45.207031 267.464844 L 48.277344 257.988281 L 40.234375 252.132812 L 50.175781 252.132812 Z M 53.25 242.65625 " clip-rule="nonzero"/></clipPath><clipPath id="a1d89218a2"><path d="M 324.75 175.253906 L 350.820312 175.253906 L 350.820312 200.0625 L 324.75 200.0625 Z M 324.75 175.253906 " clip-rule="nonzero"/></clipPath><clipPath id="26d3acea4e"><path d="M 337.765625 175.253906 L 340.835938 184.730469 L 350.78125 184.730469 L 342.734375 190.585938 L 345.808594 200.0625 L 337.765625 194.207031 L 329.722656 200.0625 L 332.792969 190.585938 L 324.75 184.730469 L 334.691406 184.730469 Z M 337.765625 175.253906 " clip-rule="nonzero"/></clipPath><clipPath id="0d41dbcfae"><path d="M 308.734375 107.21875 L 334.804688 107.21875 L 334.804688 132.027344 L 308.734375 132.027344 Z M 308.734375 107.21875 " clip-rule="nonzero"/></clipPath><clipPath id="45e98829e1"><path d="M 321.75 107.21875 L 324.824219 116.695312 L 334.765625 116.695312 L 326.722656 122.550781 L 329.792969 132.027344 L 321.75 126.171875 L 313.707031 132.027344 L 316.777344 122.550781 L 308.734375 116.695312 L 318.675781 116.695312 Z M 321.75 107.21875 " clip-rule="nonzero"/></clipPath><clipPath id="8b26b11319"><path d="M 308.734375 242.65625 L 334.804688 242.65625 L 334.804688 267.464844 L 308.734375 267.464844 Z M 308.734375 242.65625 " clip-rule="nonzero"/></clipPath><clipPath id="b921d81c0d"><path d="M 321.75 242.65625 L 324.824219 252.132812 L 334.765625 252.132812 L 326.722656 257.988281 L 329.792969 267.464844 L 321.75 261.609375 L 313.707031 267.464844 L 316.777344 257.988281 L 308.734375 252.132812 L 318.675781 252.132812 Z M 321.75 242.65625 " clip-rule="nonzero"/></clipPath><clipPath id="0568e4b3ea"><path d="M 187.632812 187.5 L 263 187.5 L 263 262.871094 L 187.632812 262.871094 Z M 187.632812 187.5 " clip-rule="nonzero"/></clipPath><clipPath id="863632de55"><path d="M 225.316406 187.5 C 204.503906 187.5 187.632812 204.371094 187.632812 225.183594 C 187.632812 245.996094 204.503906 262.871094 225.316406 262.871094 C 246.128906 262.871094 263 245.996094 263 225.183594 C 263 204.371094 246.128906 187.5 225.316406 187.5 Z M 225.316406 187.5 " clip-rule="nonzero"/></clipPath><clipPath id="62ad202844"><path d="M 187.632812 187.5 L 262.707031 187.5 L 262.707031 262.574219 L 187.632812 262.574219 Z M 187.632812 187.5 " clip-rule="nonzero"/></clipPath><clipPath id="40a3684677"><path d="M 225.3125 187.5 C 204.5 187.5 187.632812 204.371094 187.632812 225.179688 C 187.632812 245.992188 204.5 262.863281 225.3125 262.863281 C 246.121094 262.863281 262.992188 245.992188 262.992188 225.179688 C 262.992188 204.371094 246.121094 187.5 225.3125 187.5 Z M 225.3125 187.5 " clip-rule="nonzero"/></clipPath><clipPath id="5712e3cf3b"><path d="M 110.910156 255 L 187 255 L 187 282 L 110.910156 282 Z M 110.910156 255 " clip-rule="nonzero"/></clipPath><clipPath id="3690ab26c5"><path d="M 135 92.449219 L 159 92.449219 L 159 119 L 135 119 Z M 135 92.449219 " clip-rule="nonzero"/></clipPath><clipPath id="d7c1c50266"><path d="M 143 92.449219 L 150 92.449219 L 150 98 L 143 98 Z M 143 92.449219 " clip-rule="nonzero"/></clipPath><clipPath id="d2399d52be"><path d="M 142 92.449219 L 150 92.449219 L 150 98 L 142 98 Z M 142 92.449219 " clip-rule="nonzero"/></clipPath><clipPath id="bee46b6dc8"><path d="M 147 92.449219 L 155 92.449219 L 155 98 L 147 98 Z M 147 92.449219 " clip-rule="nonzero"/></clipPath></defs><g clip-path="url(#142dbf94b9)"><path fill="#d9d9d9" d="M 112.628906 56.253906 L 112.628906 93.746094 L 75.140625 93.746094 L 75.140625 56.253906 Z M 112.628906 56.253906 " fill-opacity="1" fill-rule="nonzero"/></g><g clip-path="url(#889739922c)"><path fill="#d9d9d9" d="M 150.128906 93.753906 L 150.128906 131.246094 L 112.640625 131.246094 L 112.640625 93.753906 Z M 150.128906 93.753906 " fill-opacity="1" fill-rule="nonzero"/></g><g clip-path="url(#5623d891d8)"><path fill="#d9d9d9" d="M 112.628906 131.253906 L 112.628906 168.746094 L 75.140625 168.746094 L 75.140625 131.253906 Z M 112.628906 131.253906 " fill-opacity="1" fill-rule="nonzero"/></g><g clip-path="url(#70f9037bfd)"><path fill="#d9d9d9" d="M 150.128906 168.753906 L 150.128906 206.246094 L 112.640625 206.246094 L 112.640625 168.753906 Z M 150.128906 168.753906 " fill-opacity="1" fill-rule="nonzero"/></g><g clip-path="url(#8e997da7a2)"><path fill="#d9d9d9" d="M 75.128906 93.753906 L 75.128906 131.246094 L 37.640625 131.246094 L 37.640625 93.753906 Z M 75.128906 93.753906 " fill-opacity="1" fill-rule="nonzero"/></g><g clip-path="url(#26f9233e4e)"><path fill="#d9d9d9" d="M 75.128906 168.753906 L 75.128906 206.246094 L 37.640625 206.246094 L 37.640625 168.753906 Z M 75.128906 168.753906 " fill-opacity="1" fill-rule="nonzero"/></g><g clip-path="url(#1f96b7e3e6)"><path fill="#d9d9d9" d="M 187.628906 56.253906 L 187.628906 93.746094 L 150.140625 93.746094 L 150.140625 56.253906 Z M 187.628906 56.253906 " fill-opacity="1" fill-rule="nonzero"/></g><g clip-path="url(#5aaa8d1850)"><path fill="#d9d9d9" d="M 187.628906 131.253906 L 187.628906 168.746094 L 150.140625 168.746094 L 150.140625 131.253906 Z M 187.628906 131.253906 " fill-opacity="1" fill-rule="nonzero"/></g><g clip-path="url(#c58ac6cffe)"><path fill="#d9d9d9" d="M 112.628906 206.253906 L 112.628906 243.746094 L 75.140625 243.746094 L 75.140625 206.253906 Z M 112.628906 206.253906 " fill-opacity="1" fill-rule="nonzero"/></g><g clip-path="url(#67686b0e1e)"><path fill="#d9d9d9" d="M 150.128906 243.753906 L 150.128906 281.246094 L 112.640625 281.246094 L 112.640625 243.753906 Z M 150.128906 243.753906 " fill-opacity="1" fill-rule="nonzero"/></g><g clip-path="url(#a59958cc1b)"><path fill="#d9d9d9" d="M 112.628906 281.253906 L 112.628906 318.746094 L 75.140625 318.746094 L 75.140625 281.253906 Z M 112.628906 281.253906 " fill-opacity="1" fill-rule="nonzero"/></g><g clip-path="url(#ed78ca190c)"><path fill="#d9d9d9" d="M 75.128906 243.753906 L 75.128906 281.246094 L 37.640625 281.246094 L 37.640625 243.753906 Z M 75.128906 243.753906 " fill-opacity="1" fill-rule="nonzero"/></g><g clip-path="url(#45aa80c668)"><path fill="#d9d9d9" d="M 187.628906 206.253906 L 187.628906 243.746094 L 150.140625 243.746094 L 150.140625 206.253906 Z M 187.628906 206.253906 " fill-opacity="1" fill-rule="nonzero"/></g><g clip-path="url(#47a7a74bd2)"><path fill="#d9d9d9" d="M 187.628906 281.253906 L 187.628906 318.746094 L 150.140625 318.746094 L 150.140625 281.253906 Z M 187.628906 281.253906 " fill-opacity="1" fill-rule="nonzero"/></g><path stroke-linecap="round" transform="matrix(0, 0.75, -0.75, 0, 338.238263, 56.254801)" fill="none" stroke-linejoin="miter" d="M 0.498807 0.499976 L 349.488413 0.499976 " stroke="#737373" stroke-width="1" stroke-opacity="1" stroke-miterlimit="4"/><path stroke-linecap="round" transform="matrix(0, 0.75, -0.75, 0, 263.243073, 56.254801)" fill="none" stroke-linejoin="miter" d="M 0.498807 0.50118 L 349.488413 0.50118 " stroke="#737373" stroke-width="1" stroke-opacity="1" stroke-miterlimit="4"/><path stroke-linecap="round" transform="matrix(0, 0.75, -0.75, 0, 225.533104, 56.254801)" fill="none" stroke-linejoin="miter" d="M 0.498807 0.502472 L 349.488413 0.502472 " stroke="#737373" stroke-width="1" stroke-opacity="1" stroke-miterlimit="4"/><path stroke-linecap="round" transform="matrix(0, 0.75, -0.75, 0, 188.247883, 56.254801)" fill="none" stroke-linejoin="miter" d="M 0.498807 0.502385 L 349.488413 0.502385 " stroke="#737373" stroke-width="1" stroke-opacity="1" stroke-miterlimit="4"/><path stroke-linecap="round" transform="matrix(0, 0.75, -0.75, 0, 300.74307, 56.254801)" fill="none" stroke-linejoin="miter" d="M 0.498807 0.501177 L 349.488413 0.501177 " stroke="#737373" stroke-width="1" stroke-opacity="1" stroke-miterlimit="4"/><path stroke-linecap="round" transform="matrix(-0.75, 0, 0, -0.75, 337.86221, 150.748937)" fill="none" stroke-linejoin="miter" d="M 0.498571 0.498582 L 199.988167 0.498582 " stroke="#737373" stroke-width="1" stroke-opacity="1" stroke-miterlimit="4"/><path stroke-linecap="round" transform="matrix(-0.75, 0, 0, -0.75, 337.86221, 113.038968)" fill="none" stroke-linejoin="miter" d="M 0.498571 0.499874 L 199.988167 0.499874 " stroke="#737373" stroke-width="1" stroke-opacity="1" stroke-miterlimit="4"/><path stroke-linecap="round" transform="matrix(-0.75, 0, 0, -0.75, 337.86221, 75.753746)" fill="none" stroke-linejoin="miter" d="M 0.498571 0.499787 L 199.988167 0.499787 " stroke="#737373" stroke-width="1" stroke-opacity="1" stroke-miterlimit="4"/><path stroke-linecap="round" transform="matrix(-0.75, 0, 0, -0.75, 337.86221, 188.248934)" fill="none" stroke-linejoin="miter" d="M 0.498571 0.498579 L 199.988167 0.498579 " stroke="#737373" stroke-width="1" stroke-opacity="1" stroke-miterlimit="4"/><path stroke-linecap="round" transform="matrix(-0.75, 0, 0, -0.75, 337.86221, 225.744127)" fill="none" stroke-linejoin="miter" d="M 0.498571 0.502586 L 199.988167 0.502586 " stroke="#737373" stroke-width="1" stroke-opacity="1" stroke-miterlimit="4"/><path stroke-linecap="round" transform="matrix(-0.75, 0, 0, -0.75, 338.237209, 150.748937)" fill="none" stroke-linejoin="miter" d="M 0.498571 0.498582 L 199.988167 0.498582 " stroke="#737373" stroke-width="1" stroke-opacity="1" stroke-miterlimit="4"/><path stroke-linecap="round" transform="matrix(-0.75, 0, 0, -0.75, 338.237209, 113.038968)" fill="none" stroke-linejoin="miter" d="M 0.498571 0.499874 L 199.988167 0.499874 " stroke="#737373" stroke-width="1" stroke-opacity="1" stroke-miterlimit="4"/><path stroke-linecap="round" transform="matrix(-0.75, 0, 0, -0.75, 338.237209, 75.753746)" fill="none" stroke-linejoin="miter" d="M 0.498571 0.499787 L 199.988167 0.499787 " stroke="#737373" stroke-width="1" stroke-opacity="1" stroke-miterlimit="4"/><path stroke-linecap="round" transform="matrix(-0.75, 0, 0, -0.75, 338.237209, 188.248934)" fill="none" stroke-linejoin="miter" d="M 0.498571 0.498579 L 199.988167 0.498579 " stroke="#737373" stroke-width="1" stroke-opacity="1" stroke-miterlimit="4"/><path stroke-linecap="round" transform="matrix(-0.75, 0, 0, -0.75, 338.237209, 225.744127)" fill="none" stroke-linejoin="miter" d="M 0.498571 0.502586 L 199.988167 0.502586 " stroke="#737373" stroke-width="1" stroke-opacity="1" stroke-miterlimit="4"/><path stroke-linecap="round" transform="matrix(-0.75, 0, 0, -0.75, 338.237209, 300.739317)" fill="none" stroke-linejoin="miter" d="M 0.498571 0.501381 L 199.988167 0.501381 " stroke="#737373" stroke-width="1" stroke-opacity="1" stroke-miterlimit="4"/><path stroke-linecap="round" transform="matrix(-0.75, 0, 0, -0.75, 338.237209, 263.029348)" fill="none" stroke-linejoin="miter" d="M 0.498571 0.497464 L 199.988167 0.497464 " stroke="#737373" stroke-width="1" stroke-opacity="1" stroke-miterlimit="4"/><path stroke-linecap="round" transform="matrix(0.75, 0, 0, 0.75, 214.868076, 184.499988)" fill="none" stroke-linejoin="miter" d="M 0.498815 0.500016 L 9.498816 0.500016 " stroke="#737373" stroke-width="1" stroke-opacity="1" stroke-miterlimit="4"/><path stroke-linecap="round" transform="matrix(-0.000000000000004263, 0.75, -0.75, -0.000000000000004263, 222.743075, 177.374988)" fill="none" stroke-linejoin="miter" d="M 0.500016 0.501184 L 9.500016 0.501184 " stroke="#737373" stroke-width="1" stroke-opacity="1" stroke-miterlimit="4"/><path stroke-linecap="round" transform="matrix(-0.75, 0, 0, -0.75, 235.680575, 191.084519)" fill="none" stroke-linejoin="miter" d="M 0.501183 0.498109 L 9.501183 0.498109 " stroke="#737373" stroke-width="1" stroke-opacity="1" stroke-miterlimit="4"/><path stroke-linecap="round" transform="matrix(0.000000001309, -0.75, 0.75, 0.000000001309, 227.805575, 198.209505)" fill="none" stroke-linejoin="miter" d="M 0.498089 0.498817 L 9.49809 0.498816 " stroke="#737373" stroke-width="1" stroke-opacity="1" stroke-miterlimit="4"/><path stroke-linecap="round" transform="matrix(0, 0.75, -0.75, 0, 228.555575, 177.374988)" fill="none" stroke-linejoin="miter" d="M 0.500016 0.501183 L 9.500016 0.501183 " stroke="#737373" stroke-width="1" stroke-opacity="1" stroke-miterlimit="4"/><path stroke-linecap="round" transform="matrix(-0.75, 0, 0, -0.75, 235.680575, 185.249988)" fill="none" stroke-linejoin="miter" d="M 0.501183 0.499984 L 9.501183 0.499984 " stroke="#737373" stroke-width="1" stroke-opacity="1" stroke-miterlimit="4"/><path stroke-linecap="round" transform="matrix(0, -0.75, 0.75, 0, 221.993076, 198.209505)" fill="none" stroke-linejoin="miter" d="M 0.498089 0.498816 L 9.49809 0.498816 " stroke="#737373" stroke-width="1" stroke-opacity="1" stroke-miterlimit="4"/><path stroke-linecap="round" transform="matrix(0.75, 0.000000001309, -0.000000001309, 0.75, 214.868076, 190.33452)" fill="none" stroke-linejoin="miter" d="M 0.498815 0.501891 L 9.498816 0.501891 " stroke="#737373" stroke-width="1" stroke-opacity="1" stroke-miterlimit="4"/><path stroke-linecap="round" transform="matrix(0.75, 0, 0, 0.75, 214.868076, 109.337827)" fill="none" stroke-linejoin="miter" d="M 0.498815 0.49748 L 9.498816 0.49748 " stroke="#737373" stroke-width="1" stroke-opacity="1" stroke-miterlimit="4"/><path stroke-linecap="round" transform="matrix(-0.000000000000004263, 0.75, -0.75, -0.000000000000004263, 222.743075, 102.212828)" fill="none" stroke-linejoin="miter" d="M 0.49748 0.501184 L 9.49748 0.501184 " stroke="#737373" stroke-width="1" stroke-opacity="1" stroke-miterlimit="4"/><path stroke-linecap="round" transform="matrix(-0.75, 0, 0, -0.75, 235.680575, 115.922352)" fill="none" stroke-linejoin="miter" d="M 0.501183 0.500635 L 9.501183 0.500635 " stroke="#737373" stroke-width="1" stroke-opacity="1" stroke-miterlimit="4"/><path stroke-linecap="round" transform="matrix(0.000000001309, -0.75, 0.75, 0.000000001309, 227.805575, 123.047351)" fill="none" stroke-linejoin="miter" d="M 0.500635 0.498817 L 9.500635 0.498816 " stroke="#737373" stroke-width="1" stroke-opacity="1" stroke-miterlimit="4"/><path stroke-linecap="round" transform="matrix(0, 0.75, -0.75, 0, 228.555575, 102.212828)" fill="none" stroke-linejoin="miter" d="M 0.49748 0.501183 L 9.49748 0.501183 " stroke="#737373" stroke-width="1" stroke-opacity="1" stroke-miterlimit="4"/><path stroke-linecap="round" transform="matrix(-0.75, 0, 0, -0.75, 235.680575, 110.087827)" fill="none" stroke-linejoin="miter" d="M 0.501183 0.50252 L 9.501183 0.50252 " stroke="#737373" stroke-width="1" stroke-opacity="1" stroke-miterlimit="4"/><path stroke-linecap="round" transform="matrix(0, -0.75, 0.75, 0, 221.993076, 123.047351)" fill="none" stroke-linejoin="miter" d="M 0.500635 0.498816 L 9.500635 0.498816 " stroke="#737373" stroke-width="1" stroke-opacity="1" stroke-miterlimit="4"/><path stroke-linecap="round" transform="matrix(0.75, 0.000000001309, -0.000000001309, 0.75, 214.868076, 115.172352)" fill="none" stroke-linejoin="miter" d="M 0.498815 0.499365 L 9.498816 0.499365 " stroke="#737373" stroke-width="1" stroke-opacity="1" stroke-miterlimit="4"/><path stroke-linecap="round" transform="matrix(0.75, 0, 0, 0.75, 214.868076, 259.334515)" fill="none" stroke-linejoin="miter" d="M 0.498815 0.501897 L 9.498816 0.501897 " stroke="#737373" stroke-width="1" stroke-opacity="1" stroke-miterlimit="4"/><path stroke-linecap="round" transform="matrix(-0.000000000000004263, 0.75, -0.75, -0.000000000000004263, 222.743075, 252.209515)" fill="none" stroke-linejoin="miter" d="M 0.501896 0.501184 L 9.501897 0.501184 " stroke="#737373" stroke-width="1" stroke-opacity="1" stroke-miterlimit="4"/><path stroke-linecap="round" transform="matrix(-0.75, 0, 0, -0.75, 235.680575, 265.919044)" fill="none" stroke-linejoin="miter" d="M 0.501183 0.501434 L 9.501183 0.501434 " stroke="#737373" stroke-width="1" stroke-opacity="1" stroke-miterlimit="4"/><path stroke-linecap="round" transform="matrix(0.000000001309, -0.75, 0.75, 0.000000001309, 227.805575, 273.044044)" fill="none" stroke-linejoin="miter" d="M 0.501433 0.498817 L 9.501434 0.498816 " stroke="#737373" stroke-width="1" stroke-opacity="1" stroke-miterlimit="4"/><path stroke-linecap="round" transform="matrix(0, 0.75, -0.75, 0, 228.555575, 252.209515)" fill="none" stroke-linejoin="miter" d="M 0.501896 0.501183 L 9.501897 0.501183 " stroke="#737373" stroke-width="1" stroke-opacity="1" stroke-miterlimit="4"/><path stroke-linecap="round" transform="matrix(-0.75, 0, 0, -0.75, 235.680575, 260.084515)" fill="none" stroke-linejoin="miter" d="M 0.501183 0.498103 L 9.501183 0.498103 " stroke="#737373" stroke-width="1" stroke-opacity="1" stroke-miterlimit="4"/><path stroke-linecap="round" transform="matrix(0, -0.75, 0.75, 0, 221.993076, 273.044044)" fill="none" stroke-linejoin="miter" d="M 0.501433 0.498816 L 9.501434 0.498816 " stroke="#737373" stroke-width="1" stroke-opacity="1" stroke-miterlimit="4"/><path stroke-linecap="round" transform="matrix(0.75, 0.000000001309, -0.000000001309, 0.75, 214.868076, 265.169044)" fill="none" stroke-linejoin="miter" d="M 0.498815 0.498566 L 9.498816 0.498566 " stroke="#737373" stroke-width="1" stroke-opacity="1" stroke-miterlimit="4"/><path stroke-linecap="round" transform="matrix(0.75, 0, 0, 0.75, 252.461825, 72.066478)" fill="none" stroke-linejoin="miter" d="M 0.498817 0.499905 L 9.498818 0.499905 " stroke="#737373" stroke-width="1" stroke-opacity="1" stroke-miterlimit="4"/><path stroke-linecap="round" transform="matrix(-0.000000000000004263, 0.75, -0.75, -0.000000000000004263, 260.336824, 64.941478)" fill="none" stroke-linejoin="miter" d="M 0.499904 0.501182 L 9.499905 0.501182 " stroke="#737373" stroke-width="1" stroke-opacity="1" stroke-miterlimit="4"/><path stroke-linecap="round" transform="matrix(-0.75, 0, 0, -0.75, 273.274323, 78.651)" fill="none" stroke-linejoin="miter" d="M 0.501181 0.498208 L 9.501182 0.498208 " stroke="#737373" stroke-width="1" stroke-opacity="1" stroke-miterlimit="4"/><path stroke-linecap="round" transform="matrix(0.000000001309, -0.75, 0.75, 0.000000001309, 265.399324, 85.775999)" fill="none" stroke-linejoin="miter" d="M 0.498207 0.498818 L 9.498208 0.498818 " stroke="#737373" stroke-width="1" stroke-opacity="1" stroke-miterlimit="4"/><path stroke-linecap="round" transform="matrix(0, 0.75, -0.75, 0, 266.149324, 64.941478)" fill="none" stroke-linejoin="miter" d="M 0.499904 0.501182 L 9.499905 0.501182 " stroke="#737373" stroke-width="1" stroke-opacity="1" stroke-miterlimit="4"/><path stroke-linecap="round" transform="matrix(-0.75, 0, 0, -0.75, 273.274323, 72.816478)" fill="none" stroke-linejoin="miter" d="M 0.501181 0.500095 L 9.501182 0.500095 " stroke="#737373" stroke-width="1" stroke-opacity="1" stroke-miterlimit="4"/><path stroke-linecap="round" transform="matrix(0, -0.75, 0.75, 0, 259.586824, 85.775999)" fill="none" stroke-linejoin="miter" d="M 0.498207 0.498818 L 9.498208 0.498818 " stroke="#737373" stroke-width="1" stroke-opacity="1" stroke-miterlimit="4"/><path stroke-linecap="round" transform="matrix(0.75, 0.000000001309, -0.000000001309, 0.75, 252.461825, 77.901)" fill="none" stroke-linejoin="miter" d="M 0.498817 0.501792 L 9.498818 0.501792 " stroke="#737373" stroke-width="1" stroke-opacity="1" stroke-miterlimit="4"/><path stroke-linecap="round" transform="matrix(0.75, 0, 0, 0.75, 252.461825, 297.140253)" fill="none" stroke-linejoin="miter" d="M 0.498817 0.500496 L 9.498818 0.500496 " stroke="#737373" stroke-width="1" stroke-opacity="1" stroke-miterlimit="4"/><path stroke-linecap="round" transform="matrix(-0.000000000000004263, 0.75, -0.75, -0.000000000000004263, 260.336824, 290.015254)" fill="none" stroke-linejoin="miter" d="M 0.500495 0.501182 L 9.500496 0.501182 " stroke="#737373" stroke-width="1" stroke-opacity="1" stroke-miterlimit="4"/><path stroke-linecap="round" transform="matrix(-0.75, 0, 0, -0.75, 273.274323, 303.724785)" fill="none" stroke-linejoin="miter" d="M 0.501181 0.49763 L 9.501182 0.49763 " stroke="#737373" stroke-width="1" stroke-opacity="1" stroke-miterlimit="4"/><path stroke-linecap="round" transform="matrix(0.000000001309, -0.75, 0.75, 0.000000001309, 265.399324, 310.849784)" fill="none" stroke-linejoin="miter" d="M 0.497629 0.498818 L 9.49763 0.498818 " stroke="#737373" stroke-width="1" stroke-opacity="1" stroke-miterlimit="4"/><path stroke-linecap="round" transform="matrix(0, 0.75, -0.75, 0, 266.149324, 290.015254)" fill="none" stroke-linejoin="miter" d="M 0.500495 0.501182 L 9.500496 0.501182 " stroke="#737373" stroke-width="1" stroke-opacity="1" stroke-miterlimit="4"/><path stroke-linecap="round" transform="matrix(-0.75, 0, 0, -0.75, 273.274323, 297.890253)" fill="none" stroke-linejoin="miter" d="M 0.501181 0.499504 L 9.501182 0.499504 " stroke="#737373" stroke-width="1" stroke-opacity="1" stroke-miterlimit="4"/><path stroke-linecap="round" transform="matrix(0, -0.75, 0.75, 0, 259.586824, 310.849784)" fill="none" stroke-linejoin="miter" d="M 0.497629 0.498818 L 9.49763 0.498818 " stroke="#737373" stroke-width="1" stroke-opacity="1" stroke-miterlimit="4"/><path stroke-linecap="round" transform="matrix(0.75, 0.000000001309, -0.000000001309, 0.75, 252.461825, 302.974785)" fill="none" stroke-linejoin="miter" d="M 0.498817 0.50237 L 9.498818 0.50237 " stroke="#737373" stroke-width="1" stroke-opacity="1" stroke-miterlimit="4"/><path stroke-linecap="round" transform="matrix(-0.532928, -0.527719, 0.527719, -0.532928, 337.706877, 188.049979)" fill="none" stroke-linejoin="miter" d="M 0.501203 0.499041 L 70.56086 0.500645 " stroke="#737373" stroke-width="1" stroke-opacity="1" stroke-miterlimit="4"/><path stroke-linecap="round" transform="matrix(-0.532928, 0.527719, -0.527719, -0.532928, 338.234632, 188.057186)" fill="none" stroke-linejoin="miter" d="M 0.501221 0.501009 L 70.560878 0.499406 " stroke="#737373" stroke-width="1" stroke-opacity="1" stroke-miterlimit="4"/><g clip-path="url(#e65bdd033a)"><path stroke-linecap="butt" transform="matrix(0.75, 0, 0, 0.75, -18.749994, -18.749999)" fill="none" stroke-linejoin="miter" d="M 275.000028 -0.00000164167 C 123.1198 -0.00000164167 -0.00000764167 123.119806 -0.00000764167 275.000034 C -0.00000764167 426.880262 123.1198 550.00007 275.000028 550.00007 C 426.880256 550.00007 550.000064 426.880262 550.000064 275.000034 C 550.000064 123.119806 426.880256 -0.00000164167 275.000028 -0.00000164167 Z M 275.000028 -0.00000164167 " stroke="#ffffff" stroke-width="200" stroke-opacity="1" stroke-miterlimit="4"/></g><g clip-path="url(#3e345bc5b2)"><g clip-path="url(#cd5e75b32e)"><path stroke-linecap="butt" transform="matrix(0.75, 0, 0, 0.75, 18.750003, 18.749999)" fill="none" stroke-linejoin="miter" d="M 225.000025 0.00000164167 C 100.734384 0.00000164167 -0.00000435833 100.73439 -0.00000435833 225.000031 C -0.00000435833 349.265672 100.734384 450.00006 225.000025 450.00006 C 349.265666 450.00006 450.000054 349.265672 450.000054 225.000031 C 450.000054 100.73439 349.265666 0.00000164167 225.000025 0.00000164167 Z M 225.000025 0.00000164167 " stroke="#000000" stroke-width="12" stroke-opacity="1" stroke-miterlimit="4"/></g></g><g clip-path="url(#4e2a6c285b)"><g clip-path="url(#e7733884b8)"><path stroke-linecap="butt" transform="matrix(0.75, 0, 0, 0.75, 52.500001, 52.499997)" fill="none" stroke-linejoin="miter" d="M 180.000022 0.00000459667 C 80.588551 0.00000459667 -0.00000140333 80.588557 -0.00000140333 180.000028 C -0.00000140333 279.411499 80.588551 360.000051 180.000022 360.000051 C 279.411493 360.000051 360.000045 279.411499 360.000045 180.000028 C 360.000045 80.588557 279.411493 0.00000459667 180.000022 0.00000459667 Z M 180.000022 0.00000459667 " stroke="#000000" stroke-width="12" stroke-opacity="1" stroke-miterlimit="4"/></g></g><g clip-path="url(#eb090c127b)"><g clip-path="url(#61cfa74e16)"><path fill="#000000" d="M 25.375 175.09375 L 51.445312 175.09375 L 51.445312 199.90625 L 25.375 199.90625 Z M 25.375 175.09375 " fill-opacity="1" fill-rule="nonzero"/></g></g><g clip-path="url(#26f4b0984c)"><g clip-path="url(#be29bcf401)"><path fill="#000000" d="M 40.234375 107.21875 L 66.304688 107.21875 L 66.304688 132.027344 L 40.234375 132.027344 Z M 40.234375 107.21875 " fill-opacity="1" fill-rule="nonzero"/></g></g><g clip-path="url(#a801511a06)"><g clip-path="url(#64ff45294a)"><path fill="#000000" d="M 40.234375 242.65625 L 66.304688 242.65625 L 66.304688 267.464844 L 40.234375 267.464844 Z M 40.234375 242.65625 " fill-opacity="1" fill-rule="nonzero"/></g></g><g clip-path="url(#a1d89218a2)"><g clip-path="url(#26d3acea4e)"><path fill="#000000" d="M 324.75 175.253906 L 350.820312 175.253906 L 350.820312 200.0625 L 324.75 200.0625 Z M 324.75 175.253906 " fill-opacity="1" fill-rule="nonzero"/></g></g><g clip-path="url(#0d41dbcfae)"><g clip-path="url(#45e98829e1)"><path fill="#000000" d="M 308.734375 107.21875 L 334.804688 107.21875 L 334.804688 132.027344 L 308.734375 132.027344 Z M 308.734375 107.21875 " fill-opacity="1" fill-rule="nonzero"/></g></g><g clip-path="url(#8b26b11319)"><g clip-path="url(#b921d81c0d)"><path fill="#000000" d="M 308.734375 242.65625 L 334.804688 242.65625 L 334.804688 267.464844 L 308.734375 267.464844 Z M 308.734375 242.65625 " fill-opacity="1" fill-rule="nonzero"/></g></g><g clip-path="url(#0568e4b3ea)"><g clip-path="url(#863632de55)"><path fill="#a6a6a6" d="M 187.632812 187.5 L 263 187.5 L 263 262.871094 L 187.632812 262.871094 Z M 187.632812 187.5 " fill-opacity="1" fill-rule="nonzero"/></g></g><g clip-path="url(#62ad202844)"><g clip-path="url(#40a3684677)"><path stroke-linecap="butt" transform="matrix(0.67636, 0, 0, 0.67636, 187.631227, 187.499988)" fill="none" stroke-linejoin="miter" d="M 55.711839 0.0000182041 C 24.940516 0.0000182041 0.00234479 24.943964 0.00234479 55.709512 C 0.00234479 86.480836 24.940516 111.419007 55.711839 111.419007 C 86.477387 111.419007 111.421333 86.480836 111.421333 55.709512 C 111.421333 24.943964 86.477387 0.0000182041 55.711839 0.0000182041 Z M 55.711839 0.0000182041 " stroke="#000000" stroke-width="11.088764" stroke-opacity="1" stroke-miterlimit="4"/></g></g><g fill="#000000" fill-opacity="1"><g transform="translate(201.83235, 243.42338)"><g><path d="M 15.214844 -11.925781 L 15.214844 -3.898438 L 6.996094 -3.898438 L 6.996094 -11.925781 Z M 14.835938 -29.253906 L 14.835938 -22.351562 L 6.996094 -22.351562 L 6.996094 -29.253906 Z M 6.996094 -19.34375 L 17.9375 -19.34375 L 17.9375 -32.257812 L 10.941406 -32.257812 C 11.785156 -34.183594 12.773438 -36.625 13.523438 -38.785156 L 9.765625 -39.300781 C 9.34375 -37.28125 8.546875 -34.417969 7.792969 -32.257812 L 3.851562 -32.257812 L 3.851562 2.160156 L 6.996094 2.160156 L 6.996094 -0.890625 L 18.359375 -0.890625 L 18.359375 -14.929688 L 6.996094 -14.929688 Z M 43.199219 -30.800781 L 33.808594 -30.800781 L 33.808594 -39.066406 L 30.519531 -39.066406 L 30.519531 -30.800781 L 21.503906 -30.800781 L 21.503906 -5.117188 L 24.699219 -5.117188 L 24.699219 -27.5625 L 30.519531 -27.5625 L 30.519531 3.476562 L 33.808594 3.476562 L 33.808594 -27.5625 L 39.957031 -27.5625 L 39.957031 -9.0625 C 39.957031 -8.59375 39.816406 -8.40625 39.300781 -8.40625 C 38.832031 -8.40625 37.375 -8.40625 35.683594 -8.453125 C 36.109375 -7.605469 36.53125 -6.246094 36.671875 -5.445312 C 39.113281 -5.445312 40.757812 -5.445312 41.835938 -6.011719 C 42.964844 -6.480469 43.199219 -7.464844 43.199219 -9.0625 Z M 43.199219 -30.800781 "/></g></g></g><path fill="#000000" d="M 111.414062 255.574219 C 113.804688 276.449219 186.140625 274.417969 186.261719 255.574219 L 186.261719 267.222656 C 184.722656 283.378906 118.667969 286.933594 111.414062 267.222656 Z M 111.414062 255.574219 " fill-opacity="1" fill-rule="nonzero"/><g clip-path="url(#5712e3cf3b)"><path stroke-linecap="round" transform="matrix(0.123756, 0, 0, 0.123756, 86.501543, 82.907447)" fill="none" stroke-linejoin="round" d="M 201.302739 1395.213912 C 220.619909 1563.89194 805.122101 1547.478659 806.100585 1395.213912 L 806.100585 1489.337767 C 793.664368 1619.88648 259.917091 1648.609722 201.302739 1489.337767 Z M 201.302739 1395.213912 " stroke="#2b2b2b" stroke-width="8" stroke-opacity="1" stroke-miterlimit="4"/></g><path stroke-linecap="round" transform="matrix(0.123756, 0, 0, 0.123756, 86.501543, 82.907447)" fill-opacity="1" fill="#000000" fill-rule="nonzero" stroke-linejoin="round" d="M 310.230111 1180.010546 C 364.48863 1263.371075 649.606262 1263.623587 686.725528 1180.010546 C 682.7169 1298.249298 769.296958 1272.619328 805.216793 1387.417604 C 815.916989 1547.383967 203.512219 1569.447204 202.186531 1385.681584 C 213.202368 1277.006724 333.587472 1312.579355 310.230111 1180.010546 Z M 310.230111 1180.010546 " stroke="#2b2b2b" stroke-width="8" stroke-opacity="1" stroke-miterlimit="4"/><path stroke-linecap="round" transform="matrix(0.123756, 0, 0, 0.123756, 85.530673, 80.642397)" fill-opacity="1" fill="#000000" fill-rule="nonzero" stroke-linejoin="round" d="M 697.158776 1189.096334 C 697.221904 1191.43207 696.969392 1193.767806 696.40124 1196.103543 C 695.833088 1198.407715 694.949296 1200.743451 693.781428 1203.016059 C 692.581995 1205.320231 691.130051 1207.592839 689.362467 1209.833883 C 687.594883 1212.074928 685.511659 1214.284408 683.175923 1216.43076 C 680.808623 1218.608676 678.18881 1220.723464 675.284922 1222.775124 C 672.381034 1224.858349 669.224634 1226.846881 665.784158 1228.803849 C 662.343681 1230.760817 658.650693 1232.623093 654.736757 1234.453805 C 650.822821 1236.252953 646.656372 1237.988973 642.268976 1239.661866 C 637.88158 1241.303194 633.304799 1242.881394 628.507071 1244.364902 C 623.709343 1245.84841 618.72223 1247.26879 613.545734 1248.562914 C 608.400802 1249.857038 603.066485 1251.05647 597.574349 1252.192774 C 592.113777 1253.297514 586.495384 1254.275999 580.750736 1255.191355 C 575.006087 1256.075147 569.166747 1256.864247 563.201151 1257.558655 C 557.267118 1258.221499 551.238394 1258.789651 545.114977 1259.263111 C 539.023125 1259.736571 532.868145 1260.052211 526.6816 1260.304723 C 520.495056 1260.525671 514.276947 1260.651927 508.058839 1260.651927 C 501.84073 1260.651927 495.622622 1260.525671 489.436078 1260.304723 C 483.249533 1260.052211 477.094553 1259.736571 471.0027 1259.263111 C 464.910848 1258.789651 458.882123 1258.221499 452.916527 1257.558655 C 446.982495 1256.864247 441.11159 1256.075147 435.366942 1255.191355 C 429.622293 1254.275999 424.035465 1253.297514 418.543329 1252.192774 C 413.051192 1251.05647 407.74844 1249.857038 402.571944 1248.562914 C 397.395447 1247.26879 392.439899 1245.84841 387.642171 1244.364902 C 382.844442 1242.881394 378.236098 1241.303194 373.848702 1239.661866 C 369.461305 1237.988973 365.326421 1236.252953 361.380921 1234.453805 C 357.466985 1232.623093 353.773996 1230.760817 350.365084 1228.803849 C 346.924608 1226.846881 343.736644 1224.858349 340.832755 1222.775124 C 337.928867 1220.723464 335.309055 1218.608676 332.973319 1216.43076 C 330.606019 1214.284408 328.554359 1212.074928 326.786774 1209.833883 C 325.01919 1207.592839 323.535682 1205.320231 322.367814 1203.016059 C 321.168382 1200.743451 320.316154 1198.407715 319.748002 1196.103543 C 319.17985 1193.767806 318.927338 1191.43207 318.958902 1189.096334 C 318.927338 1186.760598 319.17985 1184.424862 319.748002 1182.089126 C 320.316154 1179.784953 321.168382 1177.480781 322.367814 1175.176609 C 323.535682 1172.872437 325.01919 1170.599829 326.786774 1168.358785 C 328.554359 1166.117741 330.606019 1163.939824 332.973319 1161.761908 C 335.309055 1159.583992 337.928867 1157.469204 340.832755 1155.417544 C 343.736644 1153.365884 346.924608 1151.345787 350.365084 1149.388819 C 353.773996 1147.431851 357.466985 1145.569575 361.380921 1143.738863 C 365.326421 1141.939715 369.461305 1140.203695 373.848702 1138.530803 C 378.236098 1136.889475 382.844442 1135.311274 387.642171 1133.827766 C 392.439899 1132.344258 397.395447 1130.955442 402.571944 1129.629754 C 407.74844 1128.33563 413.051192 1127.136198 418.543329 1126.031458 C 424.035465 1124.926718 429.622293 1123.91667 435.366942 1123.001314 C 441.11159 1122.117521 446.982495 1121.328421 452.916527 1120.634013 C 458.882123 1119.971169 464.910848 1119.403017 471.0027 1118.929557 C 477.094553 1118.487661 483.249533 1118.140457 489.436078 1117.919509 C 495.622622 1117.666997 501.84073 1117.572305 508.058839 1117.572305 C 514.276947 1117.572305 520.495056 1117.666997 526.6816 1117.919509 C 532.868145 1118.140457 539.023125 1118.487661 545.114977 1118.929557 C 551.238394 1119.403017 557.267118 1119.971169 563.201151 1120.634013 C 569.166747 1121.328421 575.006087 1122.117521 580.750736 1123.001314 C 586.495384 1123.91667 592.113777 1124.926718 597.574349 1126.031458 C 603.066485 1127.136198 608.400802 1128.33563 613.545734 1129.629754 C 618.72223 1130.955442 623.709343 1132.344258 628.507071 1133.827766 C 633.304799 1135.311274 637.88158 1136.889475 642.268976 1138.530803 C 646.656372 1140.203695 650.822821 1141.939715 654.736757 1143.738863 C 658.650693 1145.569575 662.343681 1147.431851 665.784158 1149.388819 C 669.224634 1151.345787 672.381034 1153.365884 675.284922 1155.417544 C 678.18881 1157.469204 680.808623 1159.583992 683.175923 1161.761908 C 685.511659 1163.939824 687.594883 1166.117741 689.362467 1168.358785 C 691.130051 1170.599829 692.581995 1172.872437 693.781428 1175.176609 C 694.949296 1177.480781 695.833088 1179.784953 696.40124 1182.089126 C 696.969392 1184.424862 697.221904 1186.760598 697.158776 1189.096334 Z M 697.158776 1189.096334 " stroke="#2b2b2b" stroke-width="8" stroke-opacity="1" stroke-miterlimit="4"/><path stroke-linecap="round" transform="matrix(0.123756, 0, 0, 0.123756, 86.501543, 82.907447)" fill-opacity="1" fill="#000000" fill-rule="nonzero" stroke-linejoin="round" d="M 404.353965 762.923821 C 440.621004 775.77037 547.907047 776.180702 592.601674 762.923821 C 577.798157 909.759559 604.122535 1039.298224 644.871662 1166.879921 C 612.992019 1206.650563 405.111501 1227.798445 353.819998 1166.879921 C 394.884764 1032.133196 411.01397 902.310455 404.353965 762.923821 Z M 404.353965 762.923821 " stroke="#2b2b2b" stroke-width="8" stroke-opacity="1" stroke-miterlimit="4"/><path stroke-linecap="round" transform="matrix(0.123756, 0, 0, 0.123756, 99.304296, 89.742599)" fill-opacity="1" fill="#000000" fill-rule="nonzero" stroke-linejoin="round" d="M 606.537026 629.635391 C 606.537026 632.507715 606.189822 635.348475 605.495414 638.220799 C 604.83257 641.06156 603.822522 643.90232 602.46527 646.711516 C 601.108018 649.520712 599.403561 652.298344 597.383465 655.044412 C 595.363369 657.790481 593.027633 660.504985 590.376257 663.156361 C 587.724881 665.807737 584.757864 668.395985 581.475208 670.921106 C 578.192552 673.446226 574.62582 675.908218 570.775011 678.275518 C 566.892639 680.674382 562.757755 682.978554 558.370359 685.188035 C 553.951398 687.397515 549.279926 689.543867 544.387506 691.563963 C 539.463521 693.584059 534.318589 695.509463 528.952709 697.340175 C 523.586828 699.139324 518 700.84378 512.223787 702.453544 C 506.447575 704.031744 500.481979 705.515252 494.358562 706.872504 C 488.235146 708.229756 481.953909 709.460752 475.546417 710.533928 C 469.107361 711.638668 462.573612 712.617152 455.913608 713.437816 C 449.285167 714.258481 442.530471 714.952889 435.712646 715.521041 C 428.926386 716.089193 422.045433 716.499525 415.132917 716.783601 C 408.2204 717.067677 401.27632 717.225497 394.332239 717.225497 C 387.388159 717.225497 380.444078 717.067677 373.531562 716.783601 C 366.619045 716.499525 359.738093 716.089193 352.920269 715.521041 C 346.102444 714.952889 339.379312 714.258481 332.719307 713.437816 C 326.090867 712.617152 319.557118 711.638668 313.118062 710.533928 C 306.710569 709.460752 300.429333 708.229756 294.305917 706.872504 C 288.1825 705.515252 282.216904 704.031744 276.440691 702.453544 C 270.664479 700.84378 265.077651 699.139324 259.71177 697.340175 C 254.34589 695.509463 249.200957 693.584059 244.276973 691.563963 C 239.352989 689.543867 234.71308 687.397515 230.29412 685.188035 C 225.87516 682.978554 221.740276 680.674382 217.889467 678.275518 C 214.038659 675.908218 210.471927 673.446226 207.189271 670.921106 C 203.906614 668.395985 200.939598 665.807737 198.288222 663.156361 C 195.636846 660.504985 193.269546 657.790481 191.281013 655.044412 C 189.260917 652.298344 187.556461 649.520712 186.199209 646.711516 C 184.841957 643.90232 183.831909 641.06156 183.137501 638.220799 C 182.474657 635.348475 182.127453 632.507715 182.127453 629.635391 C 182.127453 626.763067 182.474657 623.890742 183.137501 621.049982 C 183.831909 618.177658 184.841957 615.368462 186.199209 612.559266 C 187.556461 609.718505 189.260917 606.940873 191.281013 604.194805 C 193.269546 601.448737 195.636846 598.765797 198.288222 596.11442 C 200.939598 593.463044 203.906614 590.874796 207.189271 588.349676 C 210.471927 585.824556 214.038659 583.362564 217.889467 580.963699 C 221.740276 578.596399 225.87516 576.292227 230.29412 574.082747 C 234.71308 571.841703 239.352989 569.726915 244.276973 567.706819 C 249.200957 565.686722 254.34589 563.761318 259.71177 561.930606 C 265.077651 560.099894 270.664479 558.395438 276.440691 556.817238 C 282.216904 555.207474 288.1825 553.75553 294.305917 552.398277 C 300.429333 551.041025 306.710569 549.810029 313.118062 548.705289 C 319.557118 547.632113 326.090867 546.653629 332.719307 545.832965 C 339.379312 544.980737 346.102444 544.286329 352.920269 543.718177 C 359.738093 543.181589 366.619045 542.739693 373.531562 542.455617 C 380.444078 542.203105 387.388159 542.045285 394.332239 542.045285 C 401.27632 542.045285 408.2204 542.203105 415.132917 542.455617 C 422.045433 542.739693 428.926386 543.181589 435.712646 543.718177 C 442.530471 544.286329 449.285167 544.980737 455.913608 545.832965 C 462.573612 546.653629 469.107361 547.632113 475.546417 548.705289 C 481.953909 549.810029 488.235146 551.041025 494.358562 552.398277 C 500.481979 553.75553 506.447575 555.207474 512.223787 556.817238 C 518 558.395438 523.586828 560.099894 528.952709 561.930606 C 534.318589 563.761318 539.463521 565.686722 544.387506 567.706819 C 549.279926 569.726915 553.951398 571.841703 558.370359 574.082747 C 562.757755 576.292227 566.892639 578.596399 570.775011 580.963699 C 574.62582 583.362564 578.192552 585.824556 581.475208 588.349676 C 584.757864 590.874796 587.724881 593.463044 590.376257 596.11442 C 593.027633 598.765797 595.363369 601.448737 597.383465 604.194805 C 599.403561 606.940873 601.108018 609.718505 602.46527 612.559266 C 603.822522 615.368462 604.83257 618.177658 605.495414 621.049982 C 606.189822 623.890742 606.537026 626.763067 606.537026 629.635391 Z M 606.537026 629.635391 " stroke="#2b2b2b" stroke-width="8" stroke-opacity="1" stroke-miterlimit="4"/><path stroke-linecap="round" transform="matrix(0.173719, 0, 0, 0.123261, 71.198995, 87.411841)" fill-opacity="1" fill="#000000" fill-rule="nonzero" stroke-linejoin="round" d="M 557.722062 605.217413 C 557.744548 610.066107 557.00251 614.88311 555.518432 619.636731 C 554.056841 624.358662 551.875697 628.98552 548.997486 633.453924 C 546.09679 637.954019 542.566484 642.200588 538.361598 646.225321 C 534.156712 650.250054 529.389676 653.989569 524.060489 657.412177 C 518.708816 660.834784 512.907423 663.877102 506.633823 666.570821 C 500.337737 669.264539 493.704361 671.546278 486.733695 673.384345 C 479.763028 675.254102 472.567501 676.648498 465.147115 677.599222 C 457.749214 678.549947 450.261369 679.025309 442.706066 679.025309 C 435.150763 679.025309 427.662918 678.549947 420.242531 677.599222 C 412.84463 676.648498 405.649103 675.254102 398.655951 673.384345 C 391.685285 671.546278 385.051908 669.264539 378.778309 666.570821 C 372.504709 663.877102 366.680829 660.834784 361.351642 657.412177 C 355.99997 653.989569 351.232933 650.250054 347.028047 646.225321 C 342.845647 642.200588 339.292856 637.954019 336.414645 633.453924 C 333.513949 628.98552 331.332805 624.358662 329.871213 619.636731 C 328.409622 614.88311 327.667583 610.066107 327.667583 605.217413 C 327.667583 600.40041 328.409622 595.583407 329.871213 590.829785 C 331.332805 586.076164 333.513949 581.480996 336.414645 576.980901 C 339.292856 572.512497 342.845647 568.265929 347.028047 564.241196 C 351.232933 560.216463 355.99997 556.476947 361.351642 553.05434 C 366.680829 549.631733 372.504709 546.557724 378.778309 543.895696 C 385.051908 541.201977 391.685285 538.920239 398.655951 537.050481 C 405.649103 535.212414 412.84463 533.818018 420.242531 532.867294 C 427.662918 531.91657 435.150763 531.441208 442.706066 531.441208 C 450.261369 531.441208 457.749214 531.91657 465.147115 532.867294 C 472.567501 533.818018 479.763028 535.212414 486.733695 537.050481 C 493.704361 538.920239 500.337737 541.201977 506.633823 543.895696 C 512.907423 546.557724 518.708816 549.631733 524.060489 553.05434 C 529.389676 556.476947 534.156712 560.216463 538.361598 564.241196 C 542.566484 568.265929 546.09679 572.512497 548.997486 576.980901 C 551.875697 581.480996 554.056841 586.076164 555.518432 590.829785 C 557.00251 595.583407 557.744548 600.40041 557.722062 605.217413 Z M 557.722062 605.217413 " stroke="#2b2b2b" stroke-width="6.766" stroke-opacity="1" stroke-miterlimit="4"/><path stroke-linecap="round" transform="matrix(0.123756, 0, 0, 0.123756, 86.501543, 82.907447)" fill-opacity="1" fill="#000000" fill-rule="nonzero" stroke-linejoin="round" d="M 380.838783 542.922726 C 398.104293 570.414972 593.04357 586.638869 616.116856 542.922726 L 616.116856 627.451124 C 585.752286 656.426878 427.458815 671.072575 380.838783 627.451124 Z M 380.838783 542.922726 " stroke="#2b2b2b" stroke-width="8" stroke-opacity="1" stroke-miterlimit="4"/><path stroke-linecap="round" transform="matrix(0.123756, 0, 0, 0.123756, 85.530673, 82.260362)" fill-opacity="1" fill="#000000" fill-rule="nonzero" stroke-linejoin="round" d="M 644.446892 560.777027 C 644.446892 564.406887 643.531536 568.005184 641.763952 571.571916 C 639.964804 575.138648 637.344992 578.610688 633.841387 581.956473 C 630.337783 585.302257 626.013515 588.490221 620.931711 591.520365 C 615.849906 594.550509 610.073694 597.328142 603.603073 599.91639 C 597.132453 602.473074 590.09368 604.777246 582.455192 606.797342 C 574.848267 608.817438 566.831011 610.521894 558.371858 611.910711 C 549.912706 613.299527 541.201041 614.341139 532.205301 615.067111 C 523.241124 615.761519 514.150691 616.108723 504.997131 616.108723 C 495.84357 616.108723 486.784701 615.761519 477.788961 615.067111 C 468.824784 614.341139 460.11312 613.299527 451.653967 611.910711 C 443.194814 610.521894 435.145994 608.817438 427.539069 606.797342 C 419.932145 604.777246 412.893372 602.473074 406.422752 599.91639 C 399.920567 597.328142 394.144355 594.550509 389.062551 591.520365 C 383.980746 588.490221 379.688042 585.302257 376.184438 581.956473 C 372.680834 578.610688 370.029457 575.138648 368.261873 571.571916 C 366.462725 568.005184 365.578933 564.406887 365.578933 560.777027 C 365.578933 557.147167 366.462725 553.548871 368.261873 549.982138 C 370.029457 546.415406 372.680834 542.97493 376.184438 539.597582 C 379.688042 536.251797 383.980746 533.063833 389.062551 530.033689 C 394.144355 527.003545 399.920567 524.225913 406.422752 521.637664 C 412.893372 519.08098 419.932145 516.776808 427.539069 514.756712 C 435.145994 512.736616 443.194814 511.03216 451.653967 509.643344 C 460.11312 508.254527 468.824784 507.212915 477.788961 506.518507 C 486.784701 505.792535 495.84357 505.445331 504.997131 505.445331 C 514.150691 505.445331 523.241124 505.792535 532.205301 506.518507 C 541.201041 507.212915 549.912706 508.254527 558.371858 509.643344 C 566.831011 511.03216 574.848267 512.736616 582.455192 514.756712 C 590.09368 516.776808 597.132453 519.08098 603.603073 521.637664 C 610.073694 524.225913 615.849906 527.003545 620.931711 530.033689 C 626.013515 533.063833 630.337783 536.251797 633.841387 539.597582 C 637.344992 542.97493 639.964804 546.415406 641.763952 549.982138 C 643.531536 553.548871 644.446892 557.147167 644.446892 560.777027 Z M 644.446892 560.777027 " stroke="#2b2b2b" stroke-width="8" stroke-opacity="1" stroke-miterlimit="4"/><path stroke-linecap="round" transform="matrix(0.123756, 0, 0, 0.123756, 86.501543, 82.907447)" fill-opacity="1" fill="#000000" fill-rule="nonzero" stroke-linejoin="round" d="M 303.696362 316.766651 C 309.914471 410.448609 697.046957 403.567657 694.553401 316.324755 C 678.708272 396.371064 636.633457 474.271021 615.67496 545.95287 C 594.842718 575.623032 418.399946 581.209861 380.396887 541.597038 C 351.768337 463.602389 286.209905 344.164204 303.696362 316.766651 Z M 303.696362 316.766651 " stroke="#2b2b2b" stroke-width="6" stroke-opacity="1" stroke-miterlimit="4"/><path stroke-linecap="round" transform="matrix(0.123756, 0, 0, 0.123756, 86.339648, 86.919978)" fill-opacity="1" fill="#000000" fill-rule="nonzero" stroke-linejoin="round" d="M 697.155694 286.932106 C 697.187258 289.078458 696.871618 291.193246 696.240338 293.308034 C 695.609058 295.454386 694.662138 297.53761 693.431142 299.652399 C 692.168582 301.735623 690.621946 303.787283 688.759669 305.838943 C 686.897393 307.890603 684.719477 309.879135 682.289049 311.867667 C 679.827057 313.824636 677.080989 315.75004 674.050844 317.64388 C 671.052264 319.53772 667.738044 321.368432 664.171312 323.136016 C 660.636143 324.9036 656.816899 326.608056 652.745143 328.280949 C 648.673387 329.922277 644.349118 331.500477 639.835466 333.015549 C 635.29025 334.530621 630.555649 335.951001 625.600101 337.308253 C 620.612989 338.665505 615.468056 339.928065 610.13374 341.095933 C 604.799424 342.295366 599.307287 343.400106 593.657331 344.410154 C 588.007374 345.420202 582.199598 346.303994 576.265566 347.124658 C 570.363097 347.945322 564.302809 348.671294 558.179392 349.302574 C 552.024412 349.90229 545.806304 350.438878 539.525067 350.84921 C 533.243831 351.259542 526.899466 351.575182 520.523538 351.764566 C 514.116045 351.985514 507.740117 352.080206 501.301061 352.080206 C 494.893568 352.080206 488.486076 351.985514 482.110147 351.764566 C 475.734219 351.575182 469.389854 351.259542 463.077054 350.84921 C 456.795818 350.438878 450.577709 349.90229 444.454293 349.302574 C 438.299312 348.671294 432.270588 347.945322 426.336555 347.124658 C 420.402523 346.303994 414.626311 345.420202 408.976354 344.410154 C 403.294834 343.400106 397.802697 342.295366 392.468381 341.095933 C 387.134065 339.928065 381.989132 338.665505 377.033584 337.308253 C 372.078036 335.951001 367.343435 334.530621 362.798219 333.015549 C 358.253003 331.500477 353.960298 329.922277 349.888542 328.280949 C 345.816786 326.608056 341.997542 324.9036 338.430809 323.136016 C 334.864077 321.368432 331.581421 319.53772 328.551277 317.64388 C 325.521133 315.75004 322.806628 313.824636 320.344636 311.867667 C 317.882644 309.879135 315.736292 307.890603 313.874016 305.838943 C 312.01174 303.787283 310.465103 301.735623 309.202543 299.652399 C 307.939983 297.53761 307.024627 295.454386 306.393347 293.308034 C 305.762067 291.193246 305.446427 289.078458 305.446427 286.932106 C 305.446427 284.785754 305.762067 282.670965 306.393347 280.556177 C 307.024627 278.409825 307.939983 276.326601 309.202543 274.211813 C 310.465103 272.128589 312.01174 270.045365 313.874016 268.025268 C 315.736292 265.973608 317.882644 263.953512 320.344636 261.996544 C 322.806628 260.008012 325.521133 258.082608 328.551277 256.220332 C 331.581421 254.326492 334.864077 252.495779 338.430809 250.728195 C 341.997542 248.960611 345.816786 247.256155 349.888542 245.583263 C 353.960298 243.941935 358.253003 242.363735 362.798219 240.848663 C 367.343435 239.333591 372.078036 237.91321 377.033584 236.555958 C 381.989132 235.198706 387.134065 233.936146 392.468381 232.736714 C 397.802697 231.568846 403.294834 230.464106 408.976354 229.454058 C 414.626311 228.44401 420.402523 227.528654 426.336555 226.739554 C 432.270588 225.91889 438.299312 225.192918 444.454293 224.561637 C 450.577709 223.961921 456.795818 223.425333 463.077054 223.015001 C 469.389854 222.604669 475.734219 222.289029 482.110147 222.068081 C 488.486076 221.878697 494.893568 221.752441 501.301061 221.752441 C 507.740117 221.752441 514.116045 221.878697 520.523538 222.068081 C 526.899466 222.289029 533.243831 222.604669 539.525067 223.015001 C 545.806304 223.425333 552.024412 223.961921 558.179392 224.561637 C 564.302809 225.192918 570.363097 225.91889 576.265566 226.739554 C 582.199598 227.528654 588.007374 228.44401 593.657331 229.454058 C 599.307287 230.464106 604.799424 231.568846 610.13374 232.736714 C 615.468056 233.936146 620.612989 235.198706 625.600101 236.555958 C 630.555649 237.91321 635.29025 239.333591 639.835466 240.848663 C 644.349118 242.363735 648.673387 243.941935 652.745143 245.583263 C 656.816899 247.256155 660.636143 248.960611 664.171312 250.728195 C 667.738044 252.495779 671.052264 254.326492 674.050844 256.220332 C 677.080989 258.082608 679.827057 260.008012 682.289049 261.996544 C 684.719477 263.953512 686.897393 265.973608 688.759669 268.025268 C 690.621946 270.045365 692.168582 272.128589 693.431142 274.211813 C 694.662138 276.326601 695.609058 278.409825 696.240338 280.556177 C 696.871618 282.670965 697.187258 284.785754 697.155694 286.932106 Z M 697.155694 286.932106 " stroke="#2b2b2b" stroke-width="8" stroke-opacity="1" stroke-miterlimit="4"/><path stroke-linecap="round" transform="matrix(0.123756, 0, 0, 0.123756, 86.377741, 83.031249)" fill-opacity="1" fill="#000000" fill-rule="nonzero" stroke-linejoin="round" d="M 591.266302 291.27262 C 591.32943 293.513665 590.761278 295.723145 589.59341 297.901061 C 588.457106 300.078977 586.721086 302.225329 584.416914 304.276989 C 582.112742 306.328649 579.271981 308.285618 575.894633 310.147894 C 572.517285 312.01017 568.666477 313.714626 564.373772 315.292826 C 560.081068 316.871026 555.378032 318.291406 550.327791 319.522402 C 545.245987 320.784962 539.911671 321.826575 534.261714 322.678803 C 528.643322 323.531031 522.803982 324.193875 516.838385 324.604207 C 510.841225 325.046103 504.780936 325.267051 498.689084 325.267051 C 492.597232 325.267051 486.536943 325.046103 480.539783 324.604207 C 474.574186 324.193875 468.76641 323.531031 463.116454 322.678803 C 457.466497 321.826575 452.132181 320.784962 447.050376 319.522402 C 442.000136 318.291406 437.2971 316.871026 433.004395 315.292826 C 428.711691 313.714626 424.860883 312.01017 421.483535 310.147894 C 418.106186 308.285618 415.265426 306.328649 412.961254 304.276989 C 410.657082 302.225329 408.921062 300.078977 407.784758 297.901061 C 406.61689 295.723145 406.048738 293.513665 406.111866 291.27262 C 406.048738 289.06314 406.61689 286.85366 407.784758 284.675744 C 408.921062 282.466264 410.657082 280.351476 412.961254 278.299816 C 415.265426 276.216591 418.106186 274.259623 421.483535 272.397347 C 424.860883 270.566635 428.711691 268.830615 433.004395 267.252415 C 437.2971 265.674215 442.000136 264.253835 447.050376 263.022838 C 452.132181 261.791842 457.466497 260.75023 463.116454 259.866438 C 468.76641 259.01421 474.574186 258.38293 480.539783 257.941034 C 486.536943 257.499138 492.597232 257.27819 498.689084 257.27819 C 504.780936 257.27819 510.841225 257.499138 516.838385 257.941034 C 522.803982 258.38293 528.643322 259.01421 534.261714 259.866438 C 539.911671 260.75023 545.245987 261.791842 550.327791 263.022838 C 555.378032 264.253835 560.081068 265.674215 564.373772 267.252415 C 568.666477 268.830615 572.517285 270.566635 575.894633 272.397347 C 579.271981 274.259623 582.112742 276.216591 584.416914 278.299816 C 586.721086 280.351476 588.457106 282.466264 589.59341 284.675744 C 590.761278 286.85366 591.32943 289.06314 591.266302 291.27262 Z M 591.266302 291.27262 " stroke="#2b2b2b" stroke-width="6" stroke-opacity="1" stroke-miterlimit="4"/><path stroke-linecap="round" transform="matrix(0.123756, 0, 0, 0.123756, 86.501543, 82.907447)" fill-opacity="1" fill="#000000" fill-rule="nonzero" stroke-linejoin="round" d="M 404.353965 291.073553 C 409.214821 335.29472 583.826881 339.208656 589.981862 291.073553 L 584.742237 317.650443 C 572.874173 340.50278 435.255123 347.131221 411.771506 317.208547 Z M 404.353965 291.073553 " stroke="#2b2b2b" stroke-width="6" stroke-opacity="1" stroke-miterlimit="4"/><g clip-path="url(#3690ab26c5)"><path stroke-linecap="round" transform="matrix(0.123756, 0, 0, 0.123756, 86.501543, 82.907447)" fill-opacity="0.387" fill="#ffffff" fill-rule="nonzero" stroke-linejoin="round" d="M 395.389788 139.534778 L 464.357133 139.534778 L 457.002721 100.868876 L 494.090423 78.11123 L 533.797938 100.868876 L 523.381817 139.534778 L 584.047829 139.534778 L 583.953137 225.483556 L 538.974434 225.483556 L 550.495295 284.634496 L 435.034175 284.634496 L 448.32262 225.483556 L 396.147325 225.483556 Z M 395.389788 139.534778 " stroke="#646464" stroke-width="2" stroke-opacity="1" stroke-miterlimit="4"/></g><path stroke-linecap="round" transform="matrix(0.123756, 0, 0, 0.123756, 86.501543, 82.907447)" fill-opacity="1" fill="#000000" fill-rule="nonzero" stroke-linejoin="round" d="M 523.318689 139.219138 L 583.890009 139.661034 L 597.93599 156.642468 L 537.238414 156.326828 Z M 523.318689 139.219138 " stroke="#646464" stroke-width="2" stroke-opacity="1" stroke-miterlimit="4"/><path stroke-linecap="round" transform="matrix(0.123756, 0, 0, 0.123756, 86.501543, 82.907447)" fill-opacity="1" fill="#2b2b2b" fill-rule="nonzero" stroke-linejoin="round" d="M 396.936425 139.881982 L 409.151693 155.569292 L 409.593589 242.275605 L 396.526093 225.704504 Z M 396.936425 139.881982 " stroke="#646464" stroke-width="2" stroke-opacity="1" stroke-miterlimit="4"/><path stroke-linecap="round" transform="matrix(0.123756, 0, 0, 0.123756, 86.501543, 82.907447)" fill-opacity="1" fill="#2b2b2b" fill-rule="nonzero" stroke-linejoin="round" d="M 396.399837 139.661034 L 463.820545 139.755726 L 478.087474 156.326828 L 410.003921 155.979624 Z M 396.399837 139.661034 " stroke="#646464" stroke-width="2" stroke-opacity="1" stroke-miterlimit="4"/><path stroke-linecap="round" transform="matrix(0.123756, 0, 0, 0.123756, 86.501543, 82.907447)" fill-opacity="1" fill="#2b2b2b" fill-rule="nonzero" stroke-linejoin="round" d="M 448.354184 225.483556 L 462.084525 242.275605 L 448.79608 301.521238 L 435.286687 283.87696 Z M 448.354184 225.483556 " stroke="#646464" stroke-width="2" stroke-opacity="1" stroke-miterlimit="4"/><path stroke-linecap="round" transform="matrix(0.123756, 0, 0, 0.123756, 86.501543, 82.907447)" fill-opacity="1" fill="#2b2b2b" fill-rule="nonzero" stroke-linejoin="round" d="M 457.192105 101.53172 L 470.922446 117.976565 L 477.992782 156.42152 L 464.262441 139.850418 Z M 457.192105 101.53172 " stroke="#646464" stroke-width="2" stroke-opacity="1" stroke-miterlimit="4"/><g clip-path="url(#d7c1c50266)"><path fill="#000000" d="M 143.039062 95.40625 L 147.652344 92.574219 L 149.308594 94.664062 L 144.792969 97.453125 L 143.042969 95.402344 Z M 143.039062 95.40625 " fill-opacity="1" fill-rule="nonzero"/></g><g clip-path="url(#d2399d52be)"><path stroke-linecap="round" transform="matrix(0.123756, 0, 0, 0.123756, 86.501543, 82.907447)" fill="none" stroke-linejoin="round" d="M 456.844901 100.995132 L 494.121987 78.11123 L 507.505124 94.997971 L 471.017138 117.534669 L 456.876465 100.963568 Z M 456.844901 100.995132 " stroke="#646464" stroke-width="2" stroke-opacity="1" stroke-miterlimit="4"/></g><g clip-path="url(#bee46b6dc8)"><path stroke-linecap="round" transform="matrix(0.123756, 0, 0, 0.123756, 86.501543, 82.907447)" fill-opacity="1" fill="#000000" fill-rule="nonzero" stroke-linejoin="round" d="M 494.342935 78.205922 L 533.640118 100.647928 L 547.149511 117.439977 L 507.63138 95.218919 Z M 494.342935 78.205922 " stroke="#646464" stroke-width="2" stroke-opacity="1" stroke-miterlimit="4"/></g><path stroke-linecap="round" transform="matrix(0.123756, 0, 0, 0.123756, 86.501543, 82.907447)" fill-opacity="1" fill="#000000" fill-rule="nonzero" stroke-linejoin="round" d="M 409.151693 156.42152 L 478.119038 156.42152 L 470.764626 117.755617 L 507.852328 94.997971 L 547.559843 117.755617 L 537.143722 156.42152 L 597.809734 156.42152 L 597.715042 242.370297 L 552.736339 242.370297 L 564.2572 301.521238 L 448.79608 301.521238 L 462.084525 242.370297 L 409.909229 242.370297 Z M 409.151693 156.42152 " stroke="#464646" stroke-width="4" stroke-opacity="1" stroke-miterlimit="4"/><g fill="#000000" fill-opacity="1"><g transform="translate(100.47742, 322.416375)"><g><path d="M 6.0625 3.859375 C 4.65625 3.066406 3.679688 2 3.140625 0.65625 C 2.609375 -0.675781 2.5 -2.128906 2.8125 -3.703125 L 6.46875 -3.421875 L 6.5 -2.8125 C 6.5 -1.769531 6.582031 -0.914062 6.75 -0.25 C 6.914062 0.414062 7.3125 0.925781 7.9375 1.28125 C 8.34375 1.5 8.816406 1.503906 9.359375 1.296875 C 9.898438 1.085938 10.304688 0.753906 10.578125 0.296875 C 10.816406 -0.140625 10.925781 -0.597656 10.90625 -1.078125 C 10.894531 -1.554688 10.78125 -2.003906 10.5625 -2.421875 L 8.53125 -5.96875 C 7.925781 -6.96875 7.570312 -8 7.46875 -9.0625 C 7.375 -10.132812 7.59375 -11.144531 8.125 -12.09375 C 8.695312 -13.101562 9.445312 -13.867188 10.375 -14.390625 C 11.300781 -14.910156 12.296875 -15.160156 13.359375 -15.140625 C 14.421875 -15.117188 15.46875 -14.816406 16.5 -14.234375 C 17.695312 -13.554688 18.550781 -12.679688 19.0625 -11.609375 C 19.570312 -10.546875 19.691406 -9.316406 19.421875 -7.921875 L 15.796875 -8.25 C 15.804688 -8.40625 15.832031 -8.757812 15.875 -9.3125 C 15.914062 -9.863281 15.847656 -10.316406 15.671875 -10.671875 C 15.492188 -11.023438 15.195312 -11.320312 14.78125 -11.5625 C 14.257812 -11.851562 13.769531 -11.914062 13.3125 -11.75 C 12.863281 -11.582031 12.492188 -11.238281 12.203125 -10.71875 C 11.992188 -10.34375 11.90625 -9.941406 11.9375 -9.515625 C 11.976562 -9.097656 12.09375 -8.71875 12.28125 -8.375 L 14.1875 -5.109375 C 15.601562 -2.742188 15.816406 -0.566406 14.828125 1.421875 C 14.203125 2.523438 13.40625 3.363281 12.4375 3.9375 C 11.46875 4.507812 10.425781 4.789062 9.3125 4.78125 C 8.195312 4.769531 7.113281 4.460938 6.0625 3.859375 Z M 6.0625 3.859375 "/></g></g></g><g fill="#000000" fill-opacity="1"><g transform="translate(117.422992, 331.541071)"><g><path d="M 1.65625 0.90625 L 9.75 -17.34375 L 13.5 -16.046875 L 5.390625 2.21875 Z M 1.65625 0.90625 "/></g></g></g><g fill="#000000" fill-opacity="1"><g transform="translate(129.064344, 336.669999)"><g><path d="M 10.6875 3.640625 L 8.953125 -10.140625 L 5.171875 1.515625 L 1.78125 0.578125 L 7.953125 -18.421875 L 11.90625 -17.3125 L 13.15625 -4.296875 L 16.765625 -15.390625 L 20.03125 -14.671875 L 13.859375 4.328125 Z M 10.6875 3.640625 "/></g></g></g><g fill="#000000" fill-opacity="1"><g transform="translate(149.730049, 342.96189)"><g><path d="M 7.15625 1.765625 C 4.882812 1.328125 3.484375 -0.00390625 2.953125 -2.234375 C 2.429688 -4.472656 2.460938 -7.097656 3.046875 -10.109375 C 3.359375 -11.722656 3.863281 -13.238281 4.5625 -14.65625 C 5.269531 -16.070312 6.1875 -17.175781 7.3125 -17.96875 C 8.445312 -18.757812 9.734375 -19.015625 11.171875 -18.734375 C 12.285156 -18.523438 13.191406 -18 13.890625 -17.15625 C 14.585938 -16.3125 15.054688 -15.296875 15.296875 -14.109375 C 15.535156 -12.921875 15.539062 -11.726562 15.3125 -10.53125 L 11.53125 -11.0625 C 11.675781 -11.851562 11.710938 -12.78125 11.640625 -13.84375 C 11.566406 -14.90625 11.140625 -15.515625 10.359375 -15.671875 C 9.523438 -15.828125 8.828125 -15.273438 8.265625 -14.015625 C 7.703125 -12.765625 7.242188 -11.21875 6.890625 -9.375 C 6.453125 -7.082031 6.273438 -5.210938 6.359375 -3.765625 C 6.441406 -2.328125 6.984375 -1.507812 7.984375 -1.3125 C 8.691406 -1.175781 9.273438 -1.492188 9.734375 -2.265625 C 10.191406 -3.046875 10.582031 -4.03125 10.90625 -5.21875 L 14.140625 -4.25 C 13.890625 -2.976562 13.445312 -1.84375 12.8125 -0.84375 C 12.175781 0.144531 11.375 0.882812 10.40625 1.375 C 9.4375 1.863281 8.351562 1.992188 7.15625 1.765625 Z M 7.15625 1.765625 "/></g></g></g><g fill="#000000" fill-opacity="1"><g transform="translate(168.552208, 346.254748)"><g><path d="M 1.875 0.140625 L 3.421875 -19.9375 L 13.625 -19.15625 L 13.046875 -16.03125 L 7.109375 -16.484375 L 6.75 -11.703125 L 10.96875 -11.390625 L 10.6875 -8.015625 L 6.484375 -8.328125 L 6.046875 -2.671875 L 12.53125 -2.171875 L 11.96875 0.921875 Z M 1.875 0.140625 "/></g></g></g><g fill="#000000" fill-opacity="1"><g transform="translate(186.351427, 347.265007)"><g/></g></g><g fill="#000000" fill-opacity="1"><g transform="translate(197.803038, 347.071694)"><g><path d="M 1.25 -3.0625 C 1.632812 -3.726562 2.300781 -4.738281 3.25 -6.09375 C 4.269531 -7.519531 5.082031 -8.738281 5.6875 -9.75 C 6.289062 -10.757812 6.78125 -11.800781 7.15625 -12.875 C 7.539062 -13.945312 7.679688 -14.976562 7.578125 -15.96875 C 7.523438 -16.507812 7.296875 -17 6.890625 -17.4375 C 6.492188 -17.875 5.960938 -18.0625 5.296875 -18 C 4.617188 -17.925781 4.054688 -17.535156 3.609375 -16.828125 C 3.160156 -16.117188 2.910156 -15.304688 2.859375 -14.390625 L -0.4375 -15.09375 C -0.363281 -16.070312 -0.109375 -17 0.328125 -17.875 C 0.773438 -18.757812 1.398438 -19.5 2.203125 -20.09375 C 3.003906 -20.6875 3.945312 -21.039062 5.03125 -21.15625 C 6.15625 -21.269531 7.179688 -21.140625 8.109375 -20.765625 C 9.035156 -20.390625 9.78125 -19.8125 10.34375 -19.03125 C 10.914062 -18.257812 11.257812 -17.351562 11.375 -16.3125 C 11.570312 -14.394531 11.113281 -12.398438 10 -10.328125 C 8.894531 -8.265625 7.40625 -6.117188 5.53125 -3.890625 L 12.453125 -4.625 L 12.46875 -1.3125 L 1.546875 -0.15625 Z M 1.25 -3.0625 "/></g></g></g><g fill="#000000" fill-opacity="1"><g transform="translate(216.811625, 344.799852)"><g><path d="M 7.328125 -1.296875 C 5.066406 -0.773438 3.269531 -1.410156 1.9375 -3.203125 C 0.613281 -5.003906 -0.367188 -7.320312 -1.015625 -10.15625 C -1.648438 -12.957031 -1.757812 -15.441406 -1.34375 -17.609375 C -0.925781 -19.785156 0.421875 -21.132812 2.703125 -21.65625 C 4.992188 -22.164062 6.800781 -21.535156 8.125 -19.765625 C 9.445312 -17.992188 10.425781 -15.710938 11.0625 -12.921875 C 11.707031 -10.097656 11.816406 -7.582031 11.390625 -5.375 C 10.972656 -3.164062 9.617188 -1.804688 7.328125 -1.296875 Z M 6.625 -4.390625 C 7.1875 -4.515625 7.59375 -4.816406 7.84375 -5.296875 C 8.09375 -5.773438 8.171875 -6.597656 8.078125 -7.765625 C 7.992188 -8.929688 7.710938 -10.585938 7.234375 -12.734375 C 6.765625 -14.796875 6.253906 -16.335938 5.703125 -17.359375 C 5.148438 -18.378906 4.382812 -18.78125 3.40625 -18.5625 C 2.4375 -18.332031 1.925781 -17.660156 1.875 -16.546875 C 1.820312 -15.429688 2.015625 -13.910156 2.453125 -11.984375 C 2.960938 -9.753906 3.425781 -8.066406 3.84375 -6.921875 C 4.269531 -5.785156 4.695312 -5.046875 5.125 -4.703125 C 5.550781 -4.359375 6.050781 -4.253906 6.625 -4.390625 Z M 6.625 -4.390625 "/></g></g></g><g fill="#000000" fill-opacity="1"><g transform="translate(236.251872, 340.004592)"><g><path d="M 1.953125 -0.6875 L 0.859375 -3.796875 L 3.28125 -4.640625 L -0.65625 -15.890625 L -3.078125 -14.421875 L -4 -17.09375 L -0.546875 -21.140625 L 1.28125 -21.78125 L 6.84375 -5.890625 L 9.3125 -6.75 L 10.265625 -3.59375 Z M 1.953125 -0.6875 "/></g></g></g><g fill="#000000" fill-opacity="1"><g transform="translate(252.463889, 334.078958)"><g><path d="M 6.5625 -2.734375 C 4.664062 -1.816406 2.90625 -2.085938 1.28125 -3.546875 C -0.332031 -5.015625 -1.691406 -6.894531 -2.796875 -9.1875 C -3.671875 -11 -4.25 -12.765625 -4.53125 -14.484375 C -4.8125 -16.203125 -4.738281 -17.710938 -4.3125 -19.015625 C -3.894531 -20.328125 -3.082031 -21.273438 -1.875 -21.859375 C -0.78125 -22.378906 0.316406 -22.425781 1.421875 -22 C 2.523438 -21.582031 3.503906 -20.726562 4.359375 -19.4375 L 2.03125 -17.5625 C 1.976562 -17.613281 1.804688 -17.820312 1.515625 -18.1875 C 1.234375 -18.5625 0.898438 -18.828125 0.515625 -18.984375 C 0.140625 -19.140625 -0.226562 -19.128906 -0.59375 -18.953125 C -2.019531 -18.265625 -1.847656 -16.070312 -0.078125 -12.375 C 0.179688 -12.84375 0.507812 -13.28125 0.90625 -13.6875 C 1.3125 -14.09375 1.757812 -14.414062 2.25 -14.65625 C 3.0625 -15.039062 3.890625 -15.148438 4.734375 -14.984375 C 5.578125 -14.828125 6.347656 -14.4375 7.046875 -13.8125 C 7.753906 -13.195312 8.332031 -12.429688 8.78125 -11.515625 C 9.28125 -10.460938 9.546875 -9.351562 9.578125 -8.1875 C 9.617188 -7.03125 9.382812 -5.953125 8.875 -4.953125 C 8.363281 -3.960938 7.59375 -3.222656 6.5625 -2.734375 Z M 5.265625 -5.625 C 5.898438 -5.925781 6.210938 -6.453125 6.203125 -7.203125 C 6.191406 -7.953125 6.003906 -8.707031 5.640625 -9.46875 C 5.273438 -10.226562 4.816406 -10.785156 4.265625 -11.140625 C 3.710938 -11.503906 3.113281 -11.53125 2.46875 -11.21875 C 2.226562 -11.101562 2.003906 -10.945312 1.796875 -10.75 C 1.597656 -10.5625 1.378906 -10.285156 1.140625 -9.921875 C 1.398438 -9.296875 1.59375 -8.851562 1.71875 -8.59375 C 2.332031 -7.300781 2.925781 -6.410156 3.5 -5.921875 C 4.070312 -5.429688 4.660156 -5.332031 5.265625 -5.625 Z M 5.265625 -5.625 "/></g></g></g><g fill="#000000" fill-opacity="1"><g transform="translate(269.30882, 325.556994)"><g/></g></g><g fill="#000000" fill-opacity="1"><g transform="translate(91.469299, 87.510052)"><g><path d="M 5.890625 -4.546875 C 4.421875 -3.296875 2.921875 -2.832031 1.390625 -3.15625 C -0.140625 -3.476562 -1.5625 -4.40625 -2.875 -5.9375 L -11.21875 -15.71875 L -8.421875 -18.28125 L 0.21875 -8.15625 C 0.65625 -7.644531 1.050781 -7.238281 1.40625 -6.9375 C 1.769531 -6.632812 2.171875 -6.457031 2.609375 -6.40625 C 3.054688 -6.351562 3.523438 -6.539062 4.015625 -6.96875 C 4.472656 -7.351562 4.695312 -7.765625 4.6875 -8.203125 C 4.6875 -8.640625 4.566406 -9.054688 4.328125 -9.453125 C 4.085938 -9.847656 3.738281 -10.3125 3.28125 -10.84375 L -5.125 -20.703125 L -2.6875 -23.1875 L 5.453125 -13.640625 C 6.648438 -12.242188 7.457031 -10.75 7.875 -9.15625 C 8.289062 -7.5625 7.628906 -6.023438 5.890625 -4.546875 Z M 5.890625 -4.546875 "/></g></g></g><g fill="#000000" fill-opacity="1"><g transform="translate(104.933708, 76.338584)"><g><path d="M 3.671875 -2.265625 L -5.515625 -15.984375 L -8.796875 -13.796875 L -10.25 -16.484375 L -0.796875 -22.8125 L 0.640625 -20.09375 L -2.359375 -18.09375 L 6.640625 -4.625 Z M 3.671875 -2.265625 "/></g></g></g><g fill="#000000" fill-opacity="1"><g transform="translate(117.662771, 68.006943)"><g><path d="M 1.609375 -0.84375 L -7.359375 -18.03125 L 1.375 -22.578125 L 2.5 -19.75 L -2.59375 -17.09375 L -0.453125 -13 L 3.171875 -14.890625 L 4.65625 -12 L 1.046875 -10.125 L 3.5625 -5.28125 L 9.109375 -8.171875 L 10.234375 -5.34375 Z M 1.609375 -0.84375 "/></g></g></g><g fill="#000000" fill-opacity="1"><g transform="translate(131.571649, 61.066632)"><g/></g></g><g fill="#000000" fill-opacity="1"><g transform="translate(140.201989, 57.475467)"><g><path d="M 6.875 -1.75 C 4.75 -1.09375 2.957031 -1.59375 1.5 -3.25 C 0.0390625 -4.90625 -1.125 -7.140625 -2 -9.953125 C -2.457031 -11.460938 -2.703125 -12.976562 -2.734375 -14.5 C -2.765625 -16.03125 -2.484375 -17.390625 -1.890625 -18.578125 C -1.296875 -19.765625 -0.328125 -20.566406 1.015625 -20.984375 C 2.046875 -21.304688 3.050781 -21.265625 4.03125 -20.859375 C 5.007812 -20.460938 5.867188 -19.8125 6.609375 -18.90625 C 7.347656 -18.007812 7.894531 -17 8.25 -15.875 L 4.796875 -14.625 C 4.566406 -15.363281 4.179688 -16.164062 3.640625 -17.03125 C 3.097656 -17.90625 2.457031 -18.226562 1.71875 -18 C 0.945312 -17.757812 0.601562 -16.976562 0.6875 -15.65625 C 0.769531 -14.332031 1.078125 -12.804688 1.609375 -11.078125 C 2.273438 -8.941406 2.96875 -7.273438 3.6875 -6.078125 C 4.414062 -4.878906 5.25 -4.425781 6.1875 -4.71875 C 6.84375 -4.914062 7.191406 -5.445312 7.234375 -6.3125 C 7.273438 -7.1875 7.164062 -8.203125 6.90625 -9.359375 L 10.09375 -10.015625 C 10.457031 -8.835938 10.597656 -7.675781 10.515625 -6.53125 C 10.429688 -5.394531 10.085938 -4.398438 9.484375 -3.546875 C 8.878906 -2.691406 8.007812 -2.09375 6.875 -1.75 Z M 6.875 -1.75 "/></g></g></g><g fill="#000000" fill-opacity="1"><g transform="translate(155.79001, 52.801344)"><g><path d="M 1.8125 -0.171875 L -1.609375 -19.109375 L 2.078125 -20.078125 L 3.46875 -12.34375 L 7.03125 -12.984375 L 5.6875 -20.421875 L 9.390625 -21.390625 L 12.796875 -2.46875 L 9.109375 -1.484375 L 7.640625 -9.578125 L 4.078125 -8.9375 L 5.484375 -1.15625 Z M 1.8125 -0.171875 "/></g></g></g><g fill="#000000" fill-opacity="1"><g transform="translate(173.192526, 49.902275)"><g><path d="M 1.8125 -0.109375 L 0.640625 -19.46875 L 10.46875 -20.0625 L 10.328125 -17.015625 L 4.59375 -16.671875 L 4.875 -12.0625 L 8.953125 -12.3125 L 9.140625 -9.0625 L 5.078125 -8.8125 L 5.40625 -3.375 L 11.65625 -3.75 L 11.53125 -0.703125 Z M 1.8125 -0.109375 "/></g></g></g><g fill="#000000" fill-opacity="1"><g transform="translate(188.497959, 49.095775)"><g><path d="M 6.890625 0.734375 C 5.335938 0.648438 4.046875 0.144531 3.015625 -0.78125 C 1.984375 -1.707031 1.253906 -2.914062 0.828125 -4.40625 L 4.109375 -5.71875 L 4.390625 -5.203125 C 4.847656 -4.316406 5.289062 -3.617188 5.71875 -3.109375 C 6.144531 -2.609375 6.703125 -2.335938 7.390625 -2.296875 C 7.835938 -2.273438 8.25 -2.46875 8.625 -2.875 C 9.007812 -3.289062 9.210938 -3.753906 9.234375 -4.265625 C 9.265625 -4.753906 9.164062 -5.203125 8.9375 -5.609375 C 8.71875 -6.015625 8.425781 -6.347656 8.0625 -6.609375 L 4.796875 -8.796875 C 3.847656 -9.398438 3.097656 -10.140625 2.546875 -11.015625 C 2.003906 -11.890625 1.765625 -12.851562 1.828125 -13.90625 C 1.878906 -15.019531 2.191406 -16 2.765625 -16.84375 C 3.335938 -17.695312 4.085938 -18.34375 5.015625 -18.78125 C 5.953125 -19.21875 6.984375 -19.40625 8.109375 -19.34375 C 9.441406 -19.269531 10.550781 -18.878906 11.4375 -18.171875 C 12.332031 -17.472656 12.972656 -16.46875 13.359375 -15.15625 L 10.078125 -13.875 C 10.015625 -14.03125 9.882812 -14.351562 9.6875 -14.84375 C 9.488281 -15.332031 9.234375 -15.6875 8.921875 -15.90625 C 8.617188 -16.132812 8.238281 -16.265625 7.78125 -16.296875 C 7.207031 -16.316406 6.757812 -16.160156 6.4375 -15.828125 C 6.125 -15.492188 5.953125 -15.039062 5.921875 -14.46875 C 5.898438 -14.0625 5.992188 -13.679688 6.203125 -13.328125 C 6.421875 -12.972656 6.6875 -12.691406 7 -12.484375 L 10.015625 -10.5 C 12.265625 -9.0625 13.394531 -7.269531 13.40625 -5.125 C 13.34375 -3.90625 13.007812 -2.84375 12.40625 -1.9375 C 11.8125 -1.03125 11.03125 -0.347656 10.0625 0.109375 C 9.101562 0.578125 8.046875 0.785156 6.890625 0.734375 Z M 6.890625 0.734375 "/></g></g></g><g fill="#000000" fill-opacity="1"><g transform="translate(205.043918, 50.141937)"><g><path d="M 6.765625 1.546875 C 5.222656 1.273438 3.992188 0.617188 3.078125 -0.421875 C 2.171875 -1.460938 1.585938 -2.75 1.328125 -4.28125 L 4.75 -5.203125 L 4.96875 -4.640625 C 5.3125 -3.710938 5.664062 -2.96875 6.03125 -2.40625 C 6.40625 -1.851562 6.929688 -1.519531 7.609375 -1.40625 C 8.054688 -1.320312 8.492188 -1.460938 8.921875 -1.828125 C 9.347656 -2.203125 9.601562 -2.644531 9.6875 -3.15625 C 9.769531 -3.632812 9.722656 -4.085938 9.546875 -4.515625 C 9.367188 -4.953125 9.117188 -5.316406 8.796875 -5.609375 L 5.796875 -8.1875 C 4.921875 -8.894531 4.265625 -9.710938 3.828125 -10.640625 C 3.390625 -11.566406 3.265625 -12.550781 3.453125 -13.59375 C 3.640625 -14.6875 4.066406 -15.625 4.734375 -16.40625 C 5.410156 -17.1875 6.234375 -17.734375 7.203125 -18.046875 C 8.179688 -18.367188 9.226562 -18.4375 10.34375 -18.25 C 11.65625 -18.019531 12.710938 -17.503906 13.515625 -16.703125 C 14.316406 -15.898438 14.828125 -14.820312 15.046875 -13.46875 L 11.640625 -12.578125 C 11.597656 -12.734375 11.503906 -13.066406 11.359375 -13.578125 C 11.222656 -14.097656 11.015625 -14.488281 10.734375 -14.75 C 10.460938 -15.007812 10.101562 -15.179688 9.65625 -15.265625 C 9.082031 -15.359375 8.613281 -15.253906 8.25 -14.953125 C 7.894531 -14.648438 7.671875 -14.21875 7.578125 -13.65625 C 7.503906 -13.257812 7.554688 -12.875 7.734375 -12.5 C 7.910156 -12.125 8.140625 -11.816406 8.421875 -11.578125 L 11.1875 -9.25 C 13.25 -7.5625 14.160156 -5.65625 13.921875 -3.53125 C 13.710938 -2.3125 13.253906 -1.285156 12.546875 -0.453125 C 11.847656 0.367188 10.992188 0.957031 9.984375 1.3125 C 8.972656 1.664062 7.898438 1.742188 6.765625 1.546875 Z M 6.765625 1.546875 "/></g></g></g><g fill="#000000" fill-opacity="1"><g transform="translate(221.537304, 53.317495)"><g/></g></g><g fill="#000000" fill-opacity="1"><g transform="translate(230.565834, 55.73888)"><g><path d="M 6.5 2.8125 C 4.425781 2.039062 3.316406 0.550781 3.171875 -1.65625 C 3.023438 -3.863281 3.46875 -6.347656 4.5 -9.109375 C 5.050781 -10.597656 5.773438 -11.953125 6.671875 -13.171875 C 7.578125 -14.398438 8.628906 -15.300781 9.828125 -15.875 C 11.035156 -16.445312 12.296875 -16.488281 13.609375 -16 C 14.628906 -15.625 15.40625 -14.976562 15.9375 -14.0625 C 16.46875 -13.144531 16.75 -12.101562 16.78125 -10.9375 C 16.8125 -9.769531 16.625 -8.640625 16.21875 -7.546875 L 12.71875 -8.65625 C 12.988281 -9.382812 13.171875 -10.257812 13.265625 -11.28125 C 13.367188 -12.300781 13.0625 -12.941406 12.34375 -13.203125 C 11.582031 -13.492188 10.832031 -13.082031 10.09375 -11.96875 C 9.363281 -10.863281 8.679688 -9.46875 8.046875 -7.78125 C 7.265625 -5.6875 6.796875 -3.941406 6.640625 -2.546875 C 6.484375 -1.160156 6.863281 -0.296875 7.78125 0.046875 C 8.425781 0.285156 9.03125 0.0703125 9.59375 -0.59375 C 10.15625 -1.257812 10.679688 -2.128906 11.171875 -3.203125 L 14.09375 -1.765625 C 13.664062 -0.609375 13.070312 0.390625 12.3125 1.234375 C 11.550781 2.085938 10.671875 2.664062 9.671875 2.96875 C 8.671875 3.28125 7.613281 3.226562 6.5 2.8125 Z M 6.5 2.8125 "/></g></g></g><g fill="#000000" fill-opacity="1"><g transform="translate(245.815096, 61.637234)"><g><path d="M 1.609375 0.8125 L 10.234375 -16.203125 L 13.734375 -14.78125 L 6.34375 -0.1875 L 12.03125 2.6875 L 10.296875 5.21875 Z M 1.609375 0.8125 "/></g></g></g><g fill="#000000" fill-opacity="1"><g transform="translate(259.111239, 68.47444)"><g><path d="M 6 4.40625 C 4.394531 3.34375 3.53125 2.023438 3.40625 0.453125 C 3.289062 -1.109375 3.789062 -2.734375 4.90625 -4.421875 L 11.984375 -15.140625 L 15.25 -13.15625 L 7.90625 -2.046875 C 7.53125 -1.484375 7.25 -0.988281 7.0625 -0.5625 C 6.875 -0.132812 6.816406 0.296875 6.890625 0.734375 C 6.960938 1.179688 7.265625 1.585938 7.796875 1.953125 C 8.304688 2.285156 8.769531 2.382812 9.1875 2.25 C 9.613281 2.113281 9.976562 1.878906 10.28125 1.546875 C 10.59375 1.210938 10.941406 0.75 11.328125 0.15625 L 18.484375 -10.640625 L 21.546875 -9 L 14.609375 1.484375 C 13.597656 3.003906 12.382812 4.1875 10.96875 5.03125 C 9.5625 5.875 7.90625 5.664062 6 4.40625 Z M 6 4.40625 "/></g></g></g><g fill="#000000" fill-opacity="1"><g transform="translate(273.556516, 78.24891)"><g><path d="M 13.984375 -13.5625 L 17.28125 -10.734375 C 19.0625 -9.210938 20.054688 -7.753906 20.265625 -6.359375 C 20.484375 -4.960938 20.109375 -3.695312 19.140625 -2.5625 C 18.515625 -1.84375 17.828125 -1.328125 17.078125 -1.015625 C 16.328125 -0.710938 15.597656 -0.65625 14.890625 -0.84375 C 15.234375 0.03125 15.359375 0.894531 15.265625 1.75 C 15.171875 2.601562 14.671875 3.5625 13.765625 4.625 C 11.410156 7.375 8.066406 6.894531 3.734375 3.1875 L 1.375 1.171875 Z M 12.328125 -4.578125 C 13.078125 -3.929688 13.742188 -3.570312 14.328125 -3.5 C 14.921875 -3.4375 15.546875 -3.789062 16.203125 -4.5625 C 16.785156 -5.238281 16.972656 -5.890625 16.765625 -6.515625 C 16.554688 -7.140625 16.085938 -7.765625 15.359375 -8.390625 L 14.796875 -8.875 L 11.640625 -5.171875 Z M 6.765625 1.8125 C 7.703125 2.613281 8.578125 2.960938 9.390625 2.859375 C 10.210938 2.753906 10.859375 2.425781 11.328125 1.875 C 12.054688 1.019531 12.3125 0.257812 12.09375 -0.40625 C 11.882812 -1.082031 11.375 -1.765625 10.5625 -2.453125 L 9.9375 -3 L 6.234375 1.34375 Z M 6.765625 1.8125 "/></g></g></g></svg>